<svg width="88" height="88" viewBox="0 0 88 88" fill="none" xmlns="http://www.w3.org/2000/svg">
<circle cx="44" cy="44" r="42.5" stroke="url(#paint0_linear)" stroke-width="3"/>
<g filter="url(#filter0_d)">
<circle cx="44" cy="44" r="31" fill="url(#paint1_linear)"/>
<circle cx="44" cy="44" r="32.5" stroke="url(#paint2_linear)" stroke-width="3"/>
</g>
<path d="M34.3828 49.1973C34.9815 49.1973 35.4668 48.7119 35.4668 48.1133C35.4668 47.5146 34.9815 47.0293 34.3828 47.0293C33.7841 47.0293 33.2988 47.5146 33.2988 48.1133C33.2988 48.7119 33.7841 49.1973 34.3828 49.1973Z" fill="url(#paint3_linear)"/>
<path d="M35.0612 39.4852C35.4838 39.9079 36.1715 39.9079 36.5941 39.4852L39.6601 36.4193C39.8649 36.2145 39.9777 35.9423 39.9777 35.6528C39.9777 35.3632 39.8649 35.0911 39.6601 34.8863C39.2375 34.4638 38.5499 34.4636 38.1271 34.8863L35.0612 37.9522C34.6385 38.3749 34.6385 39.0626 35.0612 39.4852V39.4852Z" fill="url(#paint4_linear)"/>
<path d="M51.7266 51.4099C52.7243 51.4099 53.5332 50.6011 53.5332 49.6033C53.5332 48.6055 52.7243 47.7966 51.7266 47.7966C50.7288 47.7966 49.9199 48.6055 49.9199 49.6033C49.9199 50.6011 50.7288 51.4099 51.7266 51.4099Z" fill="url(#paint5_linear)"/>
<path d="M57.5815 31.4185C54.0873 27.9244 49.4415 26 44.5 26C39.5585 26 34.9127 27.9244 31.4185 31.4185C27.9244 34.9127 26 39.5585 26 44.5C26 49.4415 27.9244 54.0873 31.4185 57.5815C34.9127 61.0756 39.5585 63 44.5 63C49.4415 63 54.0873 61.0756 57.5815 57.5815C61.0756 54.0873 63 49.4415 63 44.5C63 39.5585 61.0756 34.9127 57.5815 31.4185V31.4185ZM33.5287 36.4193L36.5946 33.3533C37.8625 32.0854 39.9257 32.0853 41.1936 33.3533C41.8079 33.9675 42.1462 34.7842 42.1462 35.6528C42.1462 36.5214 41.8078 37.338 41.1936 37.9523L38.1276 41.0182C37.4937 41.6522 36.6609 41.9692 35.8282 41.9692C34.9955 41.9692 34.1627 41.6522 33.5288 41.0183C32.2607 39.7503 32.2607 37.6872 33.5287 36.4193V36.4193ZM42.332 46.3066C42.332 46.9053 41.8467 47.3906 41.248 47.3906C40.6494 47.3906 40.1641 46.9053 40.1641 46.3066C40.1641 45.708 40.6494 45.2227 41.248 45.2227C41.8467 45.2227 42.332 45.708 42.332 46.3066ZM34.3828 51.3652C32.5897 51.3652 31.1309 49.9064 31.1309 48.1133C31.1309 46.3202 32.5897 44.8613 34.3828 44.8613C36.1759 44.8613 37.6348 46.3202 37.6348 48.1133C37.6348 49.9064 36.1759 51.3652 34.3828 51.3652ZM42.8067 53.5332C42.2773 53.5332 41.8467 53.9638 41.8467 54.4932C41.8467 56.2179 40.4435 57.6211 38.7188 57.6211C38.1201 57.6211 37.6348 57.1358 37.6348 56.5371C37.6348 55.9385 38.1201 55.4532 38.7188 55.4532C39.2481 55.4532 39.6787 55.0225 39.6787 54.4932C39.6787 52.7684 41.0819 51.3652 42.8067 51.3652C43.4053 51.3652 43.8907 51.8506 43.8907 52.4492C43.8907 53.0479 43.4054 53.5332 42.8067 53.5332ZM47.0293 32.2148C47.6279 32.2148 48.1133 32.7002 48.1133 33.2988C48.1133 33.8975 47.6279 34.3828 47.0293 34.3828C46.4306 34.3828 45.9453 33.8975 45.9453 33.2988C45.9453 32.7002 46.4306 32.2148 47.0293 32.2148ZM47.0293 38.7188C47.6279 38.7188 48.1133 39.2041 48.1133 39.8027C48.1133 40.4014 47.6279 40.8867 47.0293 40.8867C46.4306 40.8867 45.9453 40.4014 45.9453 39.8027C45.9453 39.2041 46.4306 38.7188 47.0293 38.7188ZM56.7852 50.6874H55.5497C55.3675 51.329 55.0283 51.9047 54.5759 52.3705L55.1947 53.4423C55.4941 53.9607 55.3164 54.6237 54.7979 54.923C54.6272 55.0216 54.4409 55.0684 54.2569 55.0684C53.8823 55.0684 53.518 54.874 53.3172 54.5263L52.6999 53.457C52.3883 53.5357 52.0624 53.578 51.7266 53.578C51.3909 53.578 51.065 53.5357 50.7534 53.457L50.1361 54.5263C49.9353 54.874 49.571 55.0684 49.1963 55.0684C49.0124 55.0684 48.826 55.0216 48.6553 54.923C48.1368 54.6237 47.9592 53.9607 48.2586 53.4423L48.8774 52.3705C48.425 51.9047 48.0857 51.329 47.9036 50.6874H46.668C46.0693 50.6874 45.584 50.202 45.584 49.6034C45.584 49.0047 46.0693 48.5194 46.668 48.5194H47.9034C48.0856 47.8778 48.4248 47.3021 48.8773 46.8363L48.2585 45.7645C47.9591 45.2461 48.1367 44.5831 48.6552 44.2838C49.1736 43.9845 49.8367 44.162 50.1359 44.6805L50.7532 45.7498C51.0648 45.6711 51.3907 45.6288 51.7264 45.6288C52.0621 45.6288 52.3881 45.6711 52.6996 45.7498L53.3169 44.6805C53.6162 44.162 54.2791 43.9843 54.7976 44.2838C55.3161 44.5831 55.4938 45.2461 55.1944 45.7645L54.5756 46.8363C55.028 47.3021 55.3672 47.8778 55.5494 48.5194H56.7852C57.3838 48.5194 57.8691 49.0047 57.8691 49.6034C57.8691 50.202 57.3838 50.6874 56.7852 50.6874V50.6874ZM57.5078 42.6934C56.9092 42.6934 56.4238 42.208 56.4238 41.6094C56.4238 40.7983 55.7639 40.1384 54.9529 40.1384C52.9463 40.1384 51.3139 38.506 51.3139 36.4995C51.3139 35.9008 51.7993 35.4155 52.3979 35.4155C52.9966 35.4155 53.4819 35.9008 53.4819 36.4995C53.4819 37.3106 54.1418 37.9704 54.9529 37.9704C56.9593 37.9704 58.5918 39.6028 58.5918 41.6094C58.5918 42.208 58.1065 42.6934 57.5078 42.6934Z" fill="url(#paint6_linear)"/>
<defs>
<filter id="filter0_d" x="5" y="8" width="78" height="78" filterUnits="userSpaceOnUse" color-interpolation-filters="sRGB">
<feFlood flood-opacity="0" result="BackgroundImageFix"/>
<feColorMatrix in="SourceAlpha" type="matrix" values="0 0 0 0 0 0 0 0 0 0 0 0 0 0 0 0 0 0 127 0"/>
<feOffset dy="3"/>
<feGaussianBlur stdDeviation="2.5"/>
<feColorMatrix type="matrix" values="0 0 0 0 0 0 0 0 0 0.670833 0 0 0 0 0.557921 0 0 0 0.3 0"/>
<feBlend mode="multiply" in2="BackgroundImageFix" result="effect1_dropShadow"/>
<feBlend mode="normal" in="SourceGraphic" in2="effect1_dropShadow" result="shape"/>
</filter>
<linearGradient id="paint0_linear" x1="44" y1="0" x2="44" y2="88" gradientUnits="userSpaceOnUse">
<stop stop-color="#00D1B3"/>
<stop offset="1" stop-color="#00AB8E"/>
</linearGradient>
<linearGradient id="paint1_linear" x1="44" y1="13" x2="44" y2="75" gradientUnits="userSpaceOnUse">
<stop stop-color="#00D1B3"/>
<stop offset="1" stop-color="#00AB8E"/>
</linearGradient>
<linearGradient id="paint2_linear" x1="44" y1="13" x2="44" y2="75" gradientUnits="userSpaceOnUse">
<stop stop-color="white"/>
<stop offset="1" stop-color="#ECF7FA"/>
</linearGradient>
<linearGradient id="paint3_linear" x1="34.3828" y1="47.0293" x2="34.3828" y2="49.1973" gradientUnits="userSpaceOnUse">
<stop stop-color="white"/>
<stop offset="1" stop-color="#ECF7FA"/>
</linearGradient>
<linearGradient id="paint4_linear" x1="37.3609" y1="34.5693" x2="37.3609" y2="39.8022" gradientUnits="userSpaceOnUse">
<stop stop-color="white"/>
<stop offset="1" stop-color="#ECF7FA"/>
</linearGradient>
<linearGradient id="paint5_linear" x1="51.7266" y1="47.7966" x2="51.7266" y2="51.4099" gradientUnits="userSpaceOnUse">
<stop stop-color="white"/>
<stop offset="1" stop-color="#ECF7FA"/>
</linearGradient>
<linearGradient id="paint6_linear" x1="44.5" y1="26" x2="44.5" y2="63" gradientUnits="userSpaceOnUse">
<stop stop-color="white"/>
<stop offset="1" stop-color="#ECF7FA"/>
</linearGradient>
</defs>
</svg>
