<svg width="108" height="108" viewBox="0 0 108 108" fill="none" xmlns="http://www.w3.org/2000/svg">
<g filter="url(#filter0_d)">
<g filter="url(#filter1_f)">
<path d="M68.9997 101.711C92.5881 101.711 111.71 82.5883 111.71 58.9999C111.71 35.4115 92.5881 16.2893 68.9997 16.2893C45.4113 16.2893 26.2891 35.4115 26.2891 58.9999C26.2891 82.5883 45.4113 101.711 68.9997 101.711Z" stroke="url(#paint0_linear)" stroke-width="2"/>
</g>
<path d="M69.0016 101.711C92.59 101.711 111.712 82.5883 111.712 58.9999C111.712 35.4115 92.59 16.2893 69.0016 16.2893C45.4132 16.2893 26.291 35.4115 26.291 58.9999C26.291 82.5883 45.4132 101.711 69.0016 101.711Z" fill="url(#paint1_linear)" stroke="url(#paint2_linear)" stroke-width="2"/>
<g filter="url(#filter2_d)">
<path d="M68.9995 88.6206C85.3585 88.6206 98.6201 75.359 98.6201 59C98.6201 42.641 85.3585 29.3794 68.9995 29.3794C52.6405 29.3794 39.3789 42.641 39.3789 59C39.3789 75.359 52.6405 88.6206 68.9995 88.6206Z" fill="url(#paint3_linear)"/>
<path d="M68.9995 90.1205C86.1869 90.1205 100.12 76.1874 100.12 59C100.12 41.8125 86.1869 27.8794 68.9995 27.8794C51.8121 27.8794 37.8789 41.8125 37.8789 59C37.8789 76.1874 51.8121 90.1205 68.9995 90.1205Z" stroke="url(#paint4_linear)" stroke-width="3"/>
</g>
</g>
<path fill-rule="evenodd" clip-rule="evenodd" d="M84.9324 54.5528C84.7162 55.0961 84.8807 55.7069 85.3384 56.0691C86.3499 56.8697 87 58.1087 87 59.5C87 60.8912 86.3499 62.1303 85.3384 62.9309C84.8807 63.2931 84.7171 63.9039 84.9324 64.4473C85.4084 65.6478 85.3515 67.0451 84.6559 68.25C83.9602 69.4549 82.7781 70.203 81.5006 70.3902C80.9222 70.4751 80.4751 70.9222 80.3902 71.5006C80.203 72.7781 79.4549 73.9602 78.25 74.6559C77.0451 75.3515 75.6469 75.4084 74.4473 74.9324C73.9039 74.7162 73.2931 74.8807 72.9309 75.3384C72.1303 76.3499 70.8912 77 69.5 77C68.1087 77 66.8698 76.3499 66.07 75.3384C65.7078 74.8807 65.097 74.7171 64.5536 74.9324C63.3531 75.4084 61.9558 75.3515 60.7509 74.6559C59.546 73.9602 58.7979 72.7781 58.6106 71.5006C58.5258 70.9222 58.0786 70.4751 57.5002 70.3902C56.2227 70.203 55.0406 69.4549 54.345 68.25C53.6494 67.0451 53.5925 65.6469 54.0685 64.4473C54.2846 63.9039 54.121 63.2931 53.6625 62.9309C52.6501 62.1303 52 60.8912 52 59.5C52 58.1087 52.6501 56.8697 53.6616 56.0691C54.1193 55.7069 54.2829 55.0961 54.0676 54.5528C53.5916 53.3523 53.6476 51.9549 54.3441 50.75C55.0406 49.5451 56.2219 48.797 57.4994 48.6097C58.0777 48.5249 58.5249 48.0777 58.6097 47.4994C58.797 46.2219 59.5451 45.0406 60.75 44.345C61.9549 43.6494 63.3531 43.5925 64.5528 44.0685C65.0961 44.2846 65.7069 44.121 66.0691 43.6625C66.8697 42.6501 68.1087 42 69.5 42C70.8912 42 72.1303 42.6501 72.9309 43.6616C73.2931 44.1193 73.9048 44.2829 74.4473 44.0676C75.6478 43.5916 77.0451 43.6485 78.25 44.3441C79.4549 45.0398 80.203 46.2219 80.3902 47.4994C80.4751 48.0777 80.9222 48.5249 81.5006 48.6097C82.7781 48.797 83.9602 49.5451 84.6559 50.75C85.3515 51.9549 85.4084 53.3531 84.9324 54.5528ZM56.8125 59.5C56.8125 66.4956 62.5044 72.1875 69.5 72.1875C76.4956 72.1875 82.1875 66.4956 82.1875 59.5C82.1875 52.5044 76.4956 46.8125 69.5 46.8125C62.5044 46.8125 56.8125 52.5044 56.8125 59.5ZM59.4375 59.5C59.4375 53.9516 63.9516 49.4375 69.5 49.4375C75.0484 49.4375 79.5625 53.9516 79.5625 59.5C79.5625 65.0484 75.0484 69.5625 69.5 69.5625C63.9516 69.5625 59.4375 65.0484 59.4375 59.5ZM64.5387 59.8806L68.3249 63.6291L74.4691 57.4499L72.608 55.5993L68.31 59.9209L66.385 58.0151L64.5387 59.8806Z" fill="url(#paint5_linear)"/>
<defs>
<filter id="filter0_d" x="0.289062" y="0.289307" width="137.423" height="137.421" filterUnits="userSpaceOnUse" color-interpolation-filters="sRGB">
<feFlood flood-opacity="0" result="BackgroundImageFix"/>
<feColorMatrix in="SourceAlpha" type="matrix" values="0 0 0 0 0 0 0 0 0 0 0 0 0 0 0 0 0 0 127 0"/>
<feOffset dy="10"/>
<feGaussianBlur stdDeviation="12.5"/>
<feColorMatrix type="matrix" values="0 0 0 0 0.867118 0 0 0 0 0.908897 0 0 0 0 0.920833 0 0 0 1 0"/>
<feBlend mode="multiply" in2="BackgroundImageFix" result="effect1_dropShadow"/>
<feBlend mode="normal" in="SourceGraphic" in2="effect1_dropShadow" result="shape"/>
</filter>
<filter id="filter1_f" x="20.2891" y="10.2893" width="97.4212" height="97.4212" filterUnits="userSpaceOnUse" color-interpolation-filters="sRGB">
<feFlood flood-opacity="0" result="BackgroundImageFix"/>
<feBlend mode="normal" in="SourceGraphic" in2="BackgroundImageFix" result="shape"/>
<feGaussianBlur stdDeviation="2.5" result="effect1_foregroundBlur"/>
</filter>
<filter id="filter2_d" x="21.3789" y="16.3794" width="95.2411" height="95.2411" filterUnits="userSpaceOnUse" color-interpolation-filters="sRGB">
<feFlood flood-opacity="0" result="BackgroundImageFix"/>
<feColorMatrix in="SourceAlpha" type="matrix" values="0 0 0 0 0 0 0 0 0 0 0 0 0 0 0 0 0 0 127 0"/>
<feOffset dy="5"/>
<feGaussianBlur stdDeviation="7.5"/>
<feColorMatrix type="matrix" values="0 0 0 0 0 0 0 0 0 0.670833 0 0 0 0 0.557921 0 0 0 0.3 0"/>
<feBlend mode="multiply" in2="BackgroundImageFix" result="effect1_dropShadow"/>
<feBlend mode="normal" in="SourceGraphic" in2="effect1_dropShadow" result="shape"/>
</filter>
<linearGradient id="paint0_linear" x1="68.9997" y1="17.2893" x2="68.9997" y2="100.71" gradientUnits="userSpaceOnUse">
<stop stop-color="#00D1B3"/>
<stop offset="1" stop-color="#00AB8E"/>
</linearGradient>
<linearGradient id="paint1_linear" x1="69.0016" y1="17.2893" x2="69.0016" y2="100.71" gradientUnits="userSpaceOnUse">
<stop stop-color="white" stop-opacity="0.7"/>
<stop offset="0.0001" stop-color="white" stop-opacity="0.4"/>
<stop offset="1" stop-color="white" stop-opacity="0.8"/>
</linearGradient>
<linearGradient id="paint2_linear" x1="69.0016" y1="17.2893" x2="69.0016" y2="100.71" gradientUnits="userSpaceOnUse">
<stop stop-color="#00D1B3"/>
<stop offset="1" stop-color="#00AB8E"/>
</linearGradient>
<linearGradient id="paint3_linear" x1="68.9995" y1="29.3794" x2="68.9995" y2="88.6205" gradientUnits="userSpaceOnUse">
<stop stop-color="#00D1B3"/>
<stop offset="1" stop-color="#00AB8E"/>
</linearGradient>
<linearGradient id="paint4_linear" x1="68.9995" y1="29.3794" x2="68.9995" y2="88.6205" gradientUnits="userSpaceOnUse">
<stop stop-color="white"/>
<stop offset="1" stop-color="#ECF7FA"/>
</linearGradient>
<linearGradient id="paint5_linear" x1="69.5" y1="42" x2="69.5" y2="77" gradientUnits="userSpaceOnUse">
<stop stop-color="white"/>
<stop offset="1" stop-color="#ECF7FA"/>
</linearGradient>
</defs>
</svg>
