<?xml version="1.0" encoding="utf-8"?>
<!-- Generator: Adobe Illustrator 24.1.0, SVG Export Plug-In . SVG Version: 6.00 Build 0)  -->
<svg version="1.1" id="Layer_1" xmlns="http://www.w3.org/2000/svg" xmlns:xlink="http://www.w3.org/1999/xlink" x="0px" y="0px"
	 viewBox="0 0 83.4 83.4" style="enable-background:new 0 0 83.4 83.4;" xml:space="preserve">
<style type="text/css">
	.st0{fill:url(#SVGID_1_);}
	.st1{fill:url(#SVGID_2_);}
	.st2{fill-rule:evenodd;clip-rule:evenodd;fill:url(#SVGID_3_);}
</style>
<g>
	
		<linearGradient id="SVGID_1_" gradientUnits="userSpaceOnUse" x1="41.7106" y1="127.3112" x2="41.7106" y2="43.89" gradientTransform="matrix(1 0 0 -1 0 127.3112)">
		<stop  offset="0" style="stop-color:#00D1B3"/>
		<stop  offset="1" style="stop-color:#00AB8E"/>
	</linearGradient>
	<circle class="st0" cx="41.7" cy="41.7" r="41.7"/>
	<g>
		
			<linearGradient id="SVGID_2_" gradientUnits="userSpaceOnUse" x1="41.7085" y1="115.2211" x2="41.7085" y2="55.9799" gradientTransform="matrix(1 0 0 -1 0 127.3112)">
			<stop  offset="0" style="stop-color:#D9FCF8"/>
			<stop  offset="1" style="stop-color:#FFFFFF"/>
		</linearGradient>
		<ellipse class="st1" cx="41.7" cy="41.7" rx="29.6" ry="29.6"/>
	</g>
</g>
<linearGradient id="SVGID_3_" gradientUnits="userSpaceOnUse" x1="42.209" y1="102.6005" x2="42.209" y2="67.6005" gradientTransform="matrix(1 0 0 -1 0 127.3112)">
	<stop  offset="0" style="stop-color:#00D1B3"/>
	<stop  offset="1" style="stop-color:#00AB8E"/>
</linearGradient>
<path class="st2" d="M57.6,37.3c-0.2,0.5-0.1,1.2,0.4,1.5c1,0.8,1.7,2,1.7,3.4c0,1.4-0.7,2.6-1.7,3.4c-0.5,0.4-0.6,1-0.4,1.5
	c0.5,1.2,0.4,2.6-0.3,3.8c-0.7,1.2-1.9,2-3.2,2.1c-0.6,0.1-1,0.5-1.1,1.1c-0.2,1.3-0.9,2.5-2.1,3.2c-1.2,0.7-2.6,0.8-3.8,0.3
	c-0.5-0.2-1.2-0.1-1.5,0.4c-0.8,1-2,1.7-3.4,1.7c-1.4,0-2.6-0.7-3.4-1.7c-0.4-0.5-1-0.6-1.5-0.4c-1.2,0.5-2.6,0.4-3.8-0.3
	c-1.2-0.7-2-1.9-2.1-3.2c-0.1-0.6-0.5-1-1.1-1.1c-1.3-0.2-2.5-0.9-3.2-2.1c-0.7-1.2-0.8-2.6-0.3-3.8c0.2-0.5,0.1-1.2-0.4-1.5
	c-1-0.8-1.7-2-1.7-3.4c0-1.4,0.7-2.6,1.7-3.4c0.5-0.4,0.6-1,0.4-1.5c-0.5-1.2-0.4-2.6,0.3-3.8c0.7-1.2,1.9-2,3.2-2.1
	c0.6-0.1,1-0.5,1.1-1.1c0.2-1.3,0.9-2.5,2.1-3.2c1.2-0.7,2.6-0.8,3.8-0.3c0.5,0.2,1.2,0.1,1.5-0.4c0.8-1,2-1.7,3.4-1.7
	c1.4,0,2.6,0.7,3.4,1.7c0.4,0.5,1,0.6,1.5,0.4c1.2-0.5,2.6-0.4,3.8,0.3c1.2,0.7,2,1.9,2.1,3.2c0.1,0.6,0.5,1,1.1,1.1
	c1.3,0.2,2.5,0.9,3.2,2.1C58.1,34.7,58.1,36.1,57.6,37.3z M29.5,42.2c0,7,5.7,12.7,12.7,12.7s12.7-5.7,12.7-12.7
	s-5.7-12.7-12.7-12.7S29.5,35.2,29.5,42.2z M32.1,42.2c0-5.5,4.5-10.1,10.1-10.1s10.1,4.5,10.1,10.1s-4.5,10.1-10.1,10.1
	S32.1,47.8,32.1,42.2z M37.2,42.6l3.8,3.7l6.1-6.2l-1.9-1.9L41,42.6l-1.9-1.9L37.2,42.6z"/>
</svg>
