<svg width="88" height="88" viewBox="0 0 88 88" fill="none" xmlns="http://www.w3.org/2000/svg">
<circle cx="44" cy="44" r="42.5" stroke="url(#paint0_linear)" stroke-width="3"/>
<g filter="url(#filter0_d)">
<ellipse cx="44" cy="44" rx="31" ry="31" fill="url(#paint1_linear)"/>
<path d="M44 76.5C61.9492 76.5 76.5 61.9493 76.5 44C76.5 26.0507 61.9492 11.5 44 11.5C26.0507 11.5 11.5 26.0507 11.5 44C11.5 61.9493 26.0507 76.5 44 76.5Z" stroke="url(#paint2_linear)" stroke-width="3"/>
</g>
<path fill-rule="evenodd" clip-rule="evenodd" d="M60.74 39.2417C60.512 39.8149 60.6855 40.4592 61.1683 40.8413C62.2353 41.6859 62.9211 42.9929 62.9211 44.4605C62.9211 45.9282 62.2353 47.2352 61.1683 48.0797C60.6855 48.4619 60.5129 49.1061 60.74 49.6793C61.2421 50.9457 61.1821 52.4198 60.4483 53.6908C59.7145 54.9618 58.4675 55.751 57.1199 55.9485C56.5097 56.0381 56.0381 56.5097 55.9485 57.1199C55.751 58.4675 54.9618 59.7145 53.6908 60.4483C52.4198 61.1821 50.9448 61.2421 49.6793 60.74C49.1061 60.512 48.4619 60.6855 48.0797 61.1683C47.2352 62.2353 45.9282 62.9211 44.4605 62.9211C42.9929 62.9211 41.6859 62.2353 40.8423 61.1683C40.4601 60.6855 39.8159 60.5129 39.2427 60.74C37.9763 61.2421 36.5022 61.1821 35.2312 60.4483C33.9602 59.7145 33.171 58.4675 32.9735 57.1199C32.8839 56.5097 32.4123 56.0381 31.8021 55.9485C30.4545 55.751 29.2075 54.9618 28.4737 53.6908C27.7399 52.4198 27.6799 50.9448 28.182 49.6793C28.41 49.1061 28.2374 48.4619 27.7538 48.0797C26.6858 47.2352 26 45.9282 26 44.4605C26 42.9929 26.6858 41.6859 27.7528 40.8413C28.2356 40.4592 28.4082 39.8149 28.1811 39.2417C27.679 37.9754 27.7381 36.5013 28.4728 35.2303C29.2075 33.9593 30.4536 33.1701 31.8012 32.9725C32.4113 32.883 32.883 32.4113 32.9725 31.8012C33.1701 30.4536 33.9593 29.2075 35.2303 28.4737C36.5013 27.7399 37.9763 27.6799 39.2417 28.182C39.8149 28.41 40.4592 28.2374 40.8413 27.7538C41.6859 26.6858 42.9929 26 44.4605 26C45.9282 26 47.2352 26.6858 48.0797 27.7528C48.4619 28.2356 49.1071 28.4082 49.6793 28.1811C50.9457 27.679 52.4198 27.739 53.6908 28.4728C54.9618 29.2066 55.751 30.4536 55.9485 31.8012C56.0381 32.4113 56.5097 32.883 57.1199 32.9725C58.4675 33.1701 59.7145 33.9593 60.4483 35.2303C61.1821 36.5013 61.2421 37.9763 60.74 39.2417ZM31.0766 44.4605C31.0766 51.8401 37.0809 57.8444 44.4605 57.8444C51.8401 57.8444 57.8444 51.8401 57.8444 44.4605C57.8444 37.0809 51.8401 31.0766 44.4605 31.0766C37.0809 31.0766 31.0766 37.0809 31.0766 44.4605ZM33.8457 44.4605C33.8457 38.6076 38.6076 33.8457 44.4605 33.8457C50.3135 33.8457 55.0753 38.6076 55.0753 44.4605C55.0753 50.3135 50.3135 55.0753 44.4605 55.0753C38.6076 55.0753 33.8457 50.3135 33.8457 44.4605ZM39.227 44.8621L43.2209 48.8163L49.7024 42.2979L47.7391 40.3457L43.2052 44.9045L41.1746 42.8942L39.227 44.8621Z" fill="url(#paint3_linear)"/>
<defs>
<filter id="filter0_d" x="5" y="8" width="78" height="78" filterUnits="userSpaceOnUse" color-interpolation-filters="sRGB">
<feFlood flood-opacity="0" result="BackgroundImageFix"/>
<feColorMatrix in="SourceAlpha" type="matrix" values="0 0 0 0 0 0 0 0 0 0 0 0 0 0 0 0 0 0 127 0"/>
<feOffset dy="3"/>
<feGaussianBlur stdDeviation="2.5"/>
<feColorMatrix type="matrix" values="0 0 0 0 0 0 0 0 0 0.670833 0 0 0 0 0.557921 0 0 0 0.3 0"/>
<feBlend mode="multiply" in2="BackgroundImageFix" result="effect1_dropShadow"/>
<feBlend mode="normal" in="SourceGraphic" in2="effect1_dropShadow" result="shape"/>
</filter>
<linearGradient id="paint0_linear" x1="44" y1="0" x2="44" y2="88" gradientUnits="userSpaceOnUse">
<stop stop-color="#00D1B3"/>
<stop offset="1" stop-color="#00AB8E"/>
</linearGradient>
<linearGradient id="paint1_linear" x1="44" y1="13" x2="44" y2="75" gradientUnits="userSpaceOnUse">
<stop stop-color="#00D1B3"/>
<stop offset="1" stop-color="#00AB8E"/>
</linearGradient>
<linearGradient id="paint2_linear" x1="44" y1="13" x2="44" y2="75" gradientUnits="userSpaceOnUse">
<stop stop-color="white"/>
<stop offset="1" stop-color="#ECF7FA"/>
</linearGradient>
<linearGradient id="paint3_linear" x1="44.4605" y1="26" x2="44.4605" y2="62.9211" gradientUnits="userSpaceOnUse">
<stop stop-color="white"/>
<stop offset="1" stop-color="#ECF7FA"/>
</linearGradient>
</defs>
</svg>
