<svg width="88" height="88" viewBox="0 0 88 88" fill="none" xmlns="http://www.w3.org/2000/svg">
<circle cx="44" cy="44" r="42.5" stroke="url(#paint0_linear)" stroke-width="3"/>
<g filter="url(#filter0_d)">
<circle cx="44" cy="44" r="31" fill="url(#paint1_linear)"/>
<circle cx="44" cy="44" r="32.5" stroke="url(#paint2_linear)" stroke-width="3"/>
</g>
<path d="M56.5463 39.9762C56.5382 39.9502 56.5309 39.9241 56.5228 39.8981H56.522C56.2631 39.0721 55.9212 38.2823 55.506 37.5379C55.0907 36.7936 54.6021 36.0948 54.049 35.4502C52.8664 33.8321 59.0516 29.0489 57.0239 27.0515C55.0335 25.0902 50.1703 32.0298 48.089 31.5312C47.3869 31.3122 46.6577 31.1511 45.9094 31.0528C43.8427 30.6098 44.1105 26 42.4033 26C40.7241 26 40.7351 31.2262 39.4475 31.8275C39.4255 31.8362 39.4043 31.8456 39.3823 31.8542C39.3536 31.8636 39.3272 31.8745 39.3016 31.8868C37.3758 32.6643 35.6833 33.8871 34.3562 35.4249C32.1655 37.5835 27.8364 34.4623 26.2451 36.0297C24.6546 37.5965 31.3241 41.0327 31.3241 42.7143C31.3219 42.7447 31.3204 42.7743 31.3182 42.8039C31.1348 44.3352 26.1821 42.7533 26.1821 44.8172C26.1821 46.8725 31.2302 45.7885 31.8662 47.4181C31.8772 47.4535 31.889 47.4889 31.9007 47.5243C31.9014 47.5272 31.9022 47.5301 31.9036 47.533C31.9271 47.6305 31.9587 47.7202 31.9953 47.804C32.7693 50.0095 34.1412 51.939 35.921 53.4046C38.2128 55.6621 33.5264 58.2919 35.7677 59.4481C37.9282 60.5632 38.4953 55.6817 41.1863 56.0126C42.151 56.2388 43.1568 56.3595 44.1919 56.3595C48.3149 56.3595 51.986 54.4546 54.3476 51.4895C56.2396 49.6265 58.4111 52.4911 59.1198 50.7416C59.8072 49.0462 56.5345 48.0497 56.7898 46.4042C56.8016 46.3514 56.8133 46.2987 56.8243 46.2459C57.3261 44.5051 63 44.5014 63 42.9246C63 41.3731 57.1112 41.5349 56.5463 39.9762ZM50.8988 39.8266C50.8526 40.0961 50.6097 40.2999 50.3317 40.2999C49.8159 40.2999 49.5599 39.6474 49.9509 39.3092C50.1255 39.1581 50.3823 39.1249 50.5899 39.2275C50.8122 39.3373 50.9406 39.5845 50.8988 39.8266ZM44.96 40.0412C44.96 41.4887 43.7686 42.6623 42.2992 42.6623C40.8297 42.6623 39.6383 41.4887 39.6383 40.0412C39.6383 38.5937 40.8297 37.4201 42.2992 37.4201C43.7686 37.4201 44.96 38.5937 44.96 40.0412ZM38.2583 45.412C38.4285 45.2646 38.6794 45.2292 38.8849 45.3246C39.1108 45.4301 39.2458 45.6758 39.2077 45.92C39.1651 46.1939 38.9215 46.4035 38.6391 46.4035C38.1226 46.4035 37.8688 45.7502 38.2583 45.412ZM42.7863 51.4483C41.9588 51.4483 41.2875 50.7871 41.2875 49.9712C41.2875 49.1561 41.9588 48.4948 42.7863 48.4948C43.6146 48.4948 44.2858 49.1561 44.2858 49.9712C44.2858 50.7871 43.6146 51.4483 42.7863 51.4483Z" fill="url(#paint3_linear)"/>
<path d="M62.1844 53.7311C61.508 53.0648 59.7319 55.9699 58.4634 55.9699C57.6689 55.9699 56.9353 56.2257 56.3425 56.6579C56.3176 56.6731 56.2941 56.6897 56.2728 56.7106C56.2508 56.7273 56.2288 56.7439 56.2075 56.7612C55.5619 57.1681 53.4975 55.9685 53.0001 56.78C52.4843 57.6212 54.895 58.6466 54.895 59.4849C54.895 61.426 56.4922 62.9999 58.4634 62.9999C60.434 62.9999 62.0318 61.426 62.0318 59.4849C62.0318 59.0665 61.9577 58.6662 61.8213 58.294C61.3114 57.0756 62.8615 54.3974 62.1844 53.7311ZM57.7621 58.9371C57.7217 59.2118 57.4738 59.4206 57.1935 59.4206C56.691 59.4206 56.4342 58.8027 56.7863 58.4537C56.961 58.2817 57.2317 58.242 57.4518 58.3482C57.6718 58.4551 57.7973 58.6994 57.7621 58.9371ZM60.1735 60.441C60.1134 60.6946 59.8786 60.8796 59.6138 60.8796C59.0907 60.8796 58.8412 60.2162 59.2396 59.8824C59.4304 59.7227 59.7099 59.7039 59.9204 59.8347C60.1251 59.9619 60.2285 60.209 60.1735 60.441Z" fill="url(#paint4_linear)"/>
<defs>
<filter id="filter0_d" x="5" y="8" width="78" height="78" filterUnits="userSpaceOnUse" color-interpolation-filters="sRGB">
<feFlood flood-opacity="0" result="BackgroundImageFix"/>
<feColorMatrix in="SourceAlpha" type="matrix" values="0 0 0 0 0 0 0 0 0 0 0 0 0 0 0 0 0 0 127 0"/>
<feOffset dy="3"/>
<feGaussianBlur stdDeviation="2.5"/>
<feColorMatrix type="matrix" values="0 0 0 0 0 0 0 0 0 0.670833 0 0 0 0 0.557921 0 0 0 0.3 0"/>
<feBlend mode="multiply" in2="BackgroundImageFix" result="effect1_dropShadow"/>
<feBlend mode="normal" in="SourceGraphic" in2="effect1_dropShadow" result="shape"/>
</filter>
<linearGradient id="paint0_linear" x1="44" y1="0" x2="44" y2="88" gradientUnits="userSpaceOnUse">
<stop stop-color="#00D1B3"/>
<stop offset="1" stop-color="#00AB8E"/>
</linearGradient>
<linearGradient id="paint1_linear" x1="44" y1="13" x2="44" y2="75" gradientUnits="userSpaceOnUse">
<stop stop-color="#00D1B3"/>
<stop offset="1" stop-color="#00AB8E"/>
</linearGradient>
<linearGradient id="paint2_linear" x1="44" y1="13" x2="44" y2="75" gradientUnits="userSpaceOnUse">
<stop stop-color="white"/>
<stop offset="1" stop-color="#ECF7FA"/>
</linearGradient>
<linearGradient id="paint3_linear" x1="44.5" y1="26" x2="44.5" y2="59.6141" gradientUnits="userSpaceOnUse">
<stop stop-color="white"/>
<stop offset="1" stop-color="#ECF7FA"/>
</linearGradient>
<linearGradient id="paint4_linear" x1="57.6432" y1="53.6318" x2="57.6432" y2="62.9999" gradientUnits="userSpaceOnUse">
<stop stop-color="white"/>
<stop offset="1" stop-color="#ECF7FA"/>
</linearGradient>
</defs>
</svg>
