<svg width="88" height="88" viewBox="0 0 88 88" fill="none" xmlns="http://www.w3.org/2000/svg">
<circle cx="44" cy="44" r="42.5" stroke="url(#paint0_linear)" stroke-width="3"/>
<g filter="url(#filter0_d)">
<circle cx="44" cy="44" r="31" fill="url(#paint1_linear)"/>
<circle cx="44" cy="44" r="32.5" stroke="url(#paint2_linear)" stroke-width="3"/>
</g>
<path d="M37.6816 36.829C37.1466 36.829 36.7129 36.3945 36.7129 35.8584V29.9707C36.7129 29.4346 37.1466 29 37.6816 29C38.2166 29 38.6503 29.4346 38.6503 29.9707V35.8584C38.6503 36.3945 38.2166 36.829 37.6816 36.829Z" fill="url(#paint3_linear)"/>
<path d="M50.3183 36.829C49.7833 36.829 49.3496 36.3945 49.3496 35.8584V29.9707C49.3496 29.4346 49.7833 29 50.3183 29C50.8534 29 51.2871 29.4346 51.2871 29.9707V35.8584C51.2871 36.3945 50.8534 36.829 50.3183 36.829Z" fill="url(#paint4_linear)"/>
<path d="M30 42.4666V55.8596C30 58.1427 31.8537 60.0001 34.1322 60.0001H53.8678C56.1463 60.0001 58 58.1427 58 55.8596V42.4666H30Z" fill="url(#paint5_linear)"/>
<path d="M57.9999 40.5251V36.0844C57.9999 33.8013 56.1462 31.9439 53.8677 31.9439H53.2256V35.8584C53.2256 37.4641 51.9219 38.7704 50.3194 38.7704C48.7169 38.7704 47.4132 37.4641 47.4132 35.8584V31.9438H40.5868V35.8583C40.5868 37.464 39.2831 38.7703 37.6806 38.7703C36.0781 38.7703 34.7744 37.464 34.7744 35.8583V31.9438H34.1322C31.8537 31.9438 30 33.8013 30 36.0844V40.525H57.9999V40.5251Z" fill="url(#paint6_linear)"/>
<defs>
<filter id="filter0_d" x="5" y="8" width="78" height="78" filterUnits="userSpaceOnUse" color-interpolation-filters="sRGB">
<feFlood flood-opacity="0" result="BackgroundImageFix"/>
<feColorMatrix in="SourceAlpha" type="matrix" values="0 0 0 0 0 0 0 0 0 0 0 0 0 0 0 0 0 0 127 0"/>
<feOffset dy="3"/>
<feGaussianBlur stdDeviation="2.5"/>
<feColorMatrix type="matrix" values="0 0 0 0 0 0 0 0 0 0.670833 0 0 0 0 0.557921 0 0 0 0.3 0"/>
<feBlend mode="multiply" in2="BackgroundImageFix" result="effect1_dropShadow"/>
<feBlend mode="normal" in="SourceGraphic" in2="effect1_dropShadow" result="shape"/>
</filter>
<linearGradient id="paint0_linear" x1="44" y1="0" x2="44" y2="88" gradientUnits="userSpaceOnUse">
<stop stop-color="#00D1B3"/>
<stop offset="1" stop-color="#00AB8E"/>
</linearGradient>
<linearGradient id="paint1_linear" x1="44" y1="13" x2="44" y2="75" gradientUnits="userSpaceOnUse">
<stop stop-color="#00D1B3"/>
<stop offset="1" stop-color="#00AB8E"/>
</linearGradient>
<linearGradient id="paint2_linear" x1="44" y1="13" x2="44" y2="75" gradientUnits="userSpaceOnUse">
<stop stop-color="white"/>
<stop offset="1" stop-color="#ECF7FA"/>
</linearGradient>
<linearGradient id="paint3_linear" x1="37.6816" y1="29" x2="37.6816" y2="36.829" gradientUnits="userSpaceOnUse">
<stop stop-color="white"/>
<stop offset="1" stop-color="#ECF7FA"/>
</linearGradient>
<linearGradient id="paint4_linear" x1="50.3183" y1="29" x2="50.3183" y2="36.829" gradientUnits="userSpaceOnUse">
<stop stop-color="white"/>
<stop offset="1" stop-color="#ECF7FA"/>
</linearGradient>
<linearGradient id="paint5_linear" x1="44" y1="42.4666" x2="44" y2="60.0001" gradientUnits="userSpaceOnUse">
<stop stop-color="white"/>
<stop offset="1" stop-color="#ECF7FA"/>
</linearGradient>
<linearGradient id="paint6_linear" x1="44" y1="31.9438" x2="44" y2="40.5251" gradientUnits="userSpaceOnUse">
<stop stop-color="white"/>
<stop offset="1" stop-color="#ECF7FA"/>
</linearGradient>
</defs>
</svg>
