<svg width="15" height="15" viewBox="0 0 15 15" fill="none" xmlns="http://www.w3.org/2000/svg">
<path d="M12.9607 6.20917C13.513 6.20917 13.9607 6.65688 13.9607 7.20917C13.9607 7.76145 13.513 8.20917 12.9607 8.20917L12.9607 6.20917ZM1.45742 7.20917L0.750314 7.91627C0.359789 7.52575 0.359789 6.89258 0.750314 6.50206L1.45742 7.20917ZM5.84291 1.40947C6.23343 1.01894 6.8666 1.01894 7.25712 1.40947C7.64765 1.79999 7.64765 2.43316 7.25712 2.82368L5.84291 1.40947ZM7.38444 11.722C7.77496 12.1125 7.77496 12.7457 7.38444 13.1362C6.99391 13.5267 6.36075 13.5267 5.97022 13.1362L7.38444 11.722ZM12.9607 8.20917L1.45742 8.20917L1.45742 6.20917L12.9607 6.20917L12.9607 8.20917ZM0.750314 6.50206L5.84291 1.40947L7.25712 2.82368L2.16453 7.91627L0.750314 6.50206ZM2.16453 6.50206L7.38444 11.722L5.97022 13.1362L0.750314 7.91627L2.16453 6.50206Z" fill="#4C6579"/>
</svg>
