<svg width="15" height="15" viewBox="0 0 15 15" fill="none" xmlns="http://www.w3.org/2000/svg">
<path d="M2.03931 6.20917C1.48702 6.20917 1.03931 6.65688 1.03931 7.20917C1.03931 7.76145 1.48702 8.20917 2.03931 8.20917L2.03931 6.20917ZM13.5426 7.20917L14.2497 7.91627C14.6402 7.52575 14.6402 6.89258 14.2497 6.50206L13.5426 7.20917ZM9.15709 1.40947C8.76657 1.01894 8.1334 1.01894 7.74288 1.40947C7.35235 1.79999 7.35235 2.43316 7.74288 2.82368L9.15709 1.40947ZM7.61556 11.722C7.22504 12.1125 7.22504 12.7457 7.61556 13.1362C8.00609 13.5267 8.63925 13.5267 9.02978 13.1362L7.61556 11.722ZM2.03931 8.20917L13.5426 8.20917L13.5426 6.20917L2.03931 6.20917L2.03931 8.20917ZM14.2497 6.50206L9.15709 1.40947L7.74288 2.82368L12.8355 7.91627L14.2497 6.50206ZM12.8355 6.50206L7.61556 11.722L9.02978 13.1362L14.2497 7.91627L12.8355 6.50206Z" fill="#4C6579"/>
</svg>
