<svg width="37" height="41" viewBox="0 0 37 41" fill="none" xmlns="http://www.w3.org/2000/svg">
<path d="M18.0584 10.3163C13.3748 10.3163 9.56445 14.1267 9.56445 18.8102C9.56445 23.4938 13.3748 27.3042 18.0584 27.3042C22.7419 27.3042 26.5524 23.4938 26.5524 18.8102C26.5524 14.1267 22.7419 10.3163 18.0584 10.3163ZM23.3463 20.0098H19.258V24.0981H16.8588V20.0098H12.7706V17.6107H16.8588V13.5224H19.258V17.6107H23.3463V20.0098Z" fill="url(#paint0_linear)"/>
<path d="M34.9675 6.46626C32.1191 6.35654 29.8599 4.03653 29.8242 1.18455L29.8094 0H6.31143L6.29664 1.18455C6.26089 4.03653 4.00175 6.35654 1.15336 6.46626L0 6.51072V16.1718C0 24.8991 4.52509 32.9964 11.8094 37.3037L18.0604 41L24.3115 37.3037C31.5959 32.9965 36.121 24.8992 36.121 16.1718V6.51072L34.9675 6.46626ZM18.0604 29.7036C12.0539 29.7036 7.1673 24.817 7.1673 18.8105C7.1673 12.804 12.0539 7.91728 18.0604 7.91728C24.0669 7.91728 28.9536 12.8039 28.9536 18.8104C28.9536 24.8169 24.0669 29.7036 18.0604 29.7036Z" fill="url(#paint1_linear)"/>
<defs>
<linearGradient id="paint0_linear" x1="18.0584" y1="10.3163" x2="18.0584" y2="27.3042" gradientUnits="userSpaceOnUse">
<stop stop-color="#00D1B3"/>
<stop offset="1" stop-color="#00AB8E"/>
</linearGradient>
<linearGradient id="paint1_linear" x1="18.0605" y1="0" x2="18.0605" y2="41" gradientUnits="userSpaceOnUse">
<stop stop-color="#00D1B3"/>
<stop offset="1" stop-color="#00AB8E"/>
</linearGradient>
</defs>
</svg>
