<svg width="37" height="43" viewBox="0 0 37 43" fill="none" xmlns="http://www.w3.org/2000/svg">
<path d="M27.5277 31.2703V33.3289H29.5862V35.3883H30.6047C30.5952 36.4765 30.3755 37.51 29.9861 38.4445C26.8705 38.1296 24.4395 35.4987 24.4395 32.3001C24.4395 28.8893 27.2024 26.1254 30.6132 26.1235C30.6132 27.1438 30.6122 28.1764 30.6113 29.2118H29.5862V31.2703H27.5277Z" fill="url(#paint0_linear)"/>
<path d="M30.6139 24.8033C26.4808 24.8042 23.1191 28.1669 23.1191 32.3C23.1191 35.9965 25.8085 39.0772 29.3343 39.6873C28.0443 41.6883 25.8943 43 23.4661 43H14.223C11.6439 43 9.25726 41.5025 7.99555 39.0772L0 23.7217L0.451689 23.352C0.460175 23.3454 0.468662 23.3379 0.476206 23.3303C1.17118 22.6768 2.10568 22.3411 3.05715 22.4043C4.02936 22.4788 4.92614 22.9531 5.53436 23.7151L7.8409 26.5233C8.01724 26.7383 8.3105 26.8194 8.57265 26.7251C8.83575 26.6308 9.01114 26.3828 9.01114 26.1036L9.02434 6.78853C9.02529 5.47213 10.006 4.40184 11.2102 4.40184C12.3889 4.40184 13.3507 5.42215 13.396 6.69706C13.396 8.64809 13.397 10.7717 13.397 12.7925C13.3979 17.3641 13.3988 21.3095 13.397 21.6924C13.396 21.8668 13.4658 22.0337 13.5893 22.1573C13.7129 22.2808 13.8807 22.3496 14.0552 22.3487H14.057C14.2315 22.3506 14.3984 22.2817 14.5229 22.1601C14.6464 22.0375 14.7162 21.8706 14.7171 21.6971C14.719 21.3114 14.7181 17.3678 14.7171 12.7944C14.7171 10.8217 14.7162 8.74993 14.7162 6.83757C14.7171 6.82248 14.7181 6.80833 14.7181 6.7923C14.7181 6.75458 14.7171 6.71875 14.7162 6.68103V2.3782C14.7152 1.06274 15.6959 0 16.9011 0H16.969C18.1741 0 19.1737 1.05425 19.1737 2.37066V21.6999C19.1737 22.0639 19.4698 22.36 19.8338 22.36C20.1987 22.36 20.4938 22.0639 20.4938 21.6999V4.86956C20.4938 3.55316 21.4547 2.48099 22.6599 2.48099C23.8716 2.48099 24.8316 3.55316 24.8316 4.86956V21.6999C24.8316 22.0639 25.1277 22.36 25.4916 22.36C25.8566 22.36 26.1517 22.0639 26.1517 21.6999V11.7788C26.1517 10.4614 27.1541 9.42982 28.3602 9.42982H28.4224C29.6247 9.42982 30.6064 10.4737 30.6092 11.7873C30.6168 15.0189 30.6168 19.7206 30.6139 24.8033Z" fill="url(#paint1_linear)"/>
<path d="M30.616 26.1235H30.6132C27.2024 26.1254 24.4395 28.8893 24.4395 32.3001C24.4395 35.4987 26.8705 38.1296 29.9861 38.4445C30.1935 38.4662 30.4038 38.4766 30.616 38.4766C34.0268 38.4766 36.7925 35.7108 36.7925 32.3001C36.7925 28.8884 34.0268 26.1235 30.616 26.1235ZM33.7043 33.3289H31.6448V35.3883H29.5862V33.3289H27.5277V31.2703H29.5862V29.2118H31.6448V31.2703H33.7043V33.3289Z" fill="url(#paint2_linear)"/>
<defs>
<linearGradient id="paint0_linear" x1="27.5263" y1="26.1235" x2="27.5263" y2="38.4445" gradientUnits="userSpaceOnUse">
<stop stop-color="#00D1B3"/>
<stop offset="1" stop-color="#00AB8E"/>
</linearGradient>
<linearGradient id="paint1_linear" x1="15.3078" y1="0" x2="15.3078" y2="43" gradientUnits="userSpaceOnUse">
<stop stop-color="#00D1B3"/>
<stop offset="1" stop-color="#00AB8E"/>
</linearGradient>
<linearGradient id="paint2_linear" x1="30.616" y1="26.1235" x2="30.616" y2="38.4766" gradientUnits="userSpaceOnUse">
<stop stop-color="#00D1B3"/>
<stop offset="1" stop-color="#00AB8E"/>
</linearGradient>
</defs>
</svg>
