<svg width="41" height="41" viewBox="0 0 41 41" fill="none" xmlns="http://www.w3.org/2000/svg">
<path d="M40.9132 19.8164C40.6017 18.609 39.512 17.7658 38.2646 17.7671C37.0192 17.7658 35.9308 18.6096 35.6205 19.8164H33.4476C33.2938 16.671 32.0522 13.6761 29.9346 11.3442L31.46 9.82775C32.0213 10.1921 32.6765 10.3864 33.3459 10.3877C35.2299 10.3826 36.7534 8.8507 36.7482 6.96612C36.7431 5.08218 35.2112 3.55868 33.3266 3.56383C31.442 3.56898 29.9185 5.10084 29.9243 6.98543C29.9256 7.65095 30.1226 8.30232 30.4894 8.85714L28.973 10.3826C26.6411 8.26499 23.6469 7.0234 20.5007 6.87022V5.38018C21.9618 5.00237 22.841 3.51169 22.4639 2.05062C22.0867 0.588913 20.596 -0.289659 19.1343 0.0875156C17.6726 0.46469 16.794 1.95537 17.1712 3.41708C17.4203 4.37932 18.1714 5.13109 19.1343 5.38018V6.87022C15.9888 7.0234 12.9939 8.26499 10.662 10.3826L9.14497 8.85714C10.1902 7.28215 9.76094 5.15813 8.1853 4.11285C6.61031 3.06758 4.48629 3.49689 3.44101 5.07252C2.39574 6.64752 2.82505 8.77218 4.40068 9.81681C4.96065 10.1888 5.61717 10.3871 6.28977 10.3877C6.95852 10.3864 7.61375 10.1921 8.175 9.82775L9.69979 11.3442C7.58285 13.6761 6.34127 16.671 6.18744 19.8164H4.68389C4.30607 18.551 2.97437 17.8308 1.70897 18.2086C0.442929 18.5858 -0.277306 19.9175 0.100512 21.1829C0.477686 22.4489 1.81003 23.1692 3.07543 22.792C3.84844 22.5609 4.45346 21.9565 4.68389 21.1829H6.18679C6.34062 24.329 7.58221 27.3239 9.69979 29.6551L8.175 31.1722C6.60194 30.1308 4.48178 30.5627 3.44101 32.1357C2.54378 33.4919 2.72657 35.2915 3.8774 36.4398C5.20395 37.774 7.36015 37.7798 8.69442 36.4533C8.69893 36.4488 8.70343 36.4443 8.70794 36.4398C9.85491 35.2928 10.0371 33.497 9.14497 32.1422L10.662 30.6174C12.9939 32.7343 15.9888 33.9759 19.1343 34.1297V35.6198C17.6726 35.9976 16.794 37.4883 17.1712 38.9493C17.549 40.411 19.0397 41.2896 20.5007 40.9124C21.9618 40.5353 22.841 39.0446 22.4639 37.5829C22.2154 36.62 21.4636 35.8682 20.5007 35.6198V34.1297C23.6469 33.9759 26.6411 32.7343 28.973 30.6174L30.4894 32.1422C29.4512 33.721 29.8896 35.8431 31.4684 36.8813C32.0258 37.2482 32.6785 37.4439 33.3459 37.4445C34.2515 37.4464 35.1204 37.0841 35.7576 36.4398C37.0932 35.1074 37.0964 32.9448 35.7641 31.6086C34.6158 30.4578 32.8156 30.275 31.46 31.1722L29.9346 29.6551C32.0522 27.3239 33.2938 24.329 33.4476 21.1835H35.6205C35.9984 22.6446 37.489 23.5232 38.9501 23.146C40.4118 22.7688 41.2904 21.2781 40.9132 19.8164Z" fill="url(#paint0_linear)"/>
<defs>
<linearGradient id="paint0_linear" x1="20.5003" y1="0.00012207" x2="20.5003" y2="40.9998" gradientUnits="userSpaceOnUse">
<stop stop-color="#00D1B3"/>
<stop offset="1" stop-color="#00AB8E"/>
</linearGradient>
</defs>
</svg>
