<svg width="39" height="41" viewBox="0 0 39 41" fill="none" xmlns="http://www.w3.org/2000/svg">
<path d="M37.2363 28.8281C37.8997 28.8281 38.4375 28.2903 38.4375 27.627C38.4375 26.9636 37.8997 26.4258 37.2363 26.4258C36.5729 26.4258 36.0352 26.9636 36.0352 27.627C36.0352 28.2903 36.5729 28.8281 37.2363 28.8281Z" fill="url(#paint0_linear)"/>
<path d="M37.2363 33.6328C37.8997 33.6328 38.4375 33.095 38.4375 32.4316C38.4375 31.7683 37.8997 31.2305 37.2363 31.2305C36.5729 31.2305 36.0352 31.7683 36.0352 32.4316C36.0352 33.095 36.5729 33.6328 37.2363 33.6328Z" fill="url(#paint1_linear)"/>
<path d="M32.4316 31.2305C33.095 31.2305 33.6328 30.6927 33.6328 30.0293C33.6328 29.3659 33.095 28.8281 32.4316 28.8281C31.7683 28.8281 31.2305 29.3659 31.2305 30.0293C31.2305 30.6927 31.7683 31.2305 32.4316 31.2305Z" fill="url(#paint2_linear)"/>
<path d="M33.4904 23.3885C33.6994 22.9977 33.6754 22.5236 33.4303 22.1553L28.8226 15.2429C28.7922 14.1347 28.5736 13.0624 28.2717 12.011H19.218C18.555 12.011 18.0169 12.5491 18.0169 13.2122V16.5322C18.0169 17.0063 17.739 17.4355 17.3058 17.6293C16.8742 17.8231 16.3673 17.743 16.0141 17.4275C15.5745 17.0335 15.0059 16.8165 14.4134 16.8165C13.0889 16.8165 12.011 17.8943 12.011 19.2188C12.011 19.4743 12.2841 20.2759 13.3187 21.477C15.6402 24.17 15.4384 28.3005 12.8598 30.879C12.6348 31.104 12.3297 31.2305 12.011 31.2305H6.80273C7.04537 32.2587 7.20633 33.3718 7.20633 34.4064V39.7989C7.20633 40.4627 7.74365 41.0001 8.4075 41.0001H20.4192C21.0831 41.0001 21.6204 40.4627 21.6204 39.7989V37.3165C21.6204 36.6534 22.1585 36.1153 22.8216 36.1153H27.6263C28.2901 36.1153 28.8274 35.578 28.8274 34.9141V31.2305C28.8274 30.5667 28.2901 30.0294 27.6263 30.0294H25.2239C24.5609 30.0294 24.0227 29.4912 24.0227 28.8282C24.0227 28.1651 24.5609 27.627 25.2239 27.627H27.6263C28.2901 27.627 28.8274 27.0897 28.8274 26.4258V24.0235H32.4309C32.8746 24.0235 33.2814 23.7793 33.4904 23.3885Z" fill="url(#paint3_linear)"/>
<path d="M11.4989 23.0441C10.6365 22.0447 9.60908 20.5681 9.60908 19.2188C9.60908 16.569 11.764 14.4141 14.4138 14.4141C14.823 14.4141 15.2258 14.4661 15.6149 14.5662V13.2129C15.6149 11.2229 17.2285 9.60938 19.2185 9.60938H25.2243C28.5411 9.60938 31.2302 6.92035 31.2302 3.60352V1.20117C31.2302 0.537324 30.6928 0 30.029 0C29.3467 0 28.7982 0.567754 28.8294 1.25723C28.8583 1.89865 28.2689 2.40234 27.6267 2.40234H13.6514C8.70339 2.40234 3.95396 4.92561 1.61007 9.28266C-1.09096 14.3044 -0.263756 20.1413 3.12115 24.1444C4.38478 25.637 5.34171 27.2138 6.02558 28.8281H11.4797C12.8691 27.1305 12.9043 24.6745 11.4989 23.0441Z" fill="url(#paint4_linear)"/>
<defs>
<linearGradient id="paint0_linear" x1="37.2363" y1="26.4258" x2="37.2363" y2="28.8281" gradientUnits="userSpaceOnUse">
<stop stop-color="#00D1B3"/>
<stop offset="1" stop-color="#00AB8E"/>
</linearGradient>
<linearGradient id="paint1_linear" x1="37.2363" y1="31.2305" x2="37.2363" y2="33.6328" gradientUnits="userSpaceOnUse">
<stop stop-color="#00D1B3"/>
<stop offset="1" stop-color="#00AB8E"/>
</linearGradient>
<linearGradient id="paint2_linear" x1="32.4316" y1="28.8281" x2="32.4316" y2="31.2305" gradientUnits="userSpaceOnUse">
<stop stop-color="#00D1B3"/>
<stop offset="1" stop-color="#00AB8E"/>
</linearGradient>
<linearGradient id="paint3_linear" x1="20.2174" y1="12.011" x2="20.2174" y2="41.0001" gradientUnits="userSpaceOnUse">
<stop stop-color="#00D1B3"/>
<stop offset="1" stop-color="#00AB8E"/>
</linearGradient>
<linearGradient id="paint4_linear" x1="15.6151" y1="0" x2="15.6151" y2="28.8281" gradientUnits="userSpaceOnUse">
<stop stop-color="#00D1B3"/>
<stop offset="1" stop-color="#00AB8E"/>
</linearGradient>
</defs>
</svg>
