<svg width="172" height="172" viewBox="0 0 172 172" fill="none" xmlns="http://www.w3.org/2000/svg">
<g opacity="0.3" filter="url(#filter0_f)">
<path opacity="0.3" d="M119 23H53C50.2386 23 48 25.2386 48 28V94C48 96.7614 50.2386 99 53 99H119C121.761 99 124 96.7614 124 94V28C124 25.2386 121.761 23 119 23Z" fill="url(#paint0_linear)"/>
<path opacity="0.3" d="M119 24.5H53C51.067 24.5 49.5 26.067 49.5 28V94C49.5 95.933 51.067 97.5 53 97.5H119C120.933 97.5 122.5 95.933 122.5 94V28C122.5 26.067 120.933 24.5 119 24.5Z" stroke="url(#paint1_linear)" stroke-width="3"/>
</g>
<g filter="url(#filter1_d)">
<path d="M86 102C108.644 102 127 83.6437 127 61C127 38.3563 108.644 20 86 20C63.3563 20 45 38.3563 45 61C45 83.6437 63.3563 102 86 102Z" fill="url(#paint2_linear)"/>
</g>
<path d="M122.5 61C122.5 40.8416 106.158 24.5 86 24.5C65.8416 24.5 49.5 40.8416 49.5 61C49.5 81.1584 65.8416 97.5 86 97.5C106.158 97.5 122.5 81.1584 122.5 61Z" stroke="url(#paint3_linear)" stroke-width="3"/>
<path d="M86.0584 52.3163C81.3748 52.3163 77.5645 56.1267 77.5645 60.8102C77.5645 65.4938 81.3748 69.3042 86.0584 69.3042C90.7419 69.3042 94.5524 65.4938 94.5524 60.8102C94.5524 56.1267 90.7419 52.3163 86.0584 52.3163ZM91.3463 62.0098H87.258V66.0981H84.8588V62.0098H80.7706V59.6107H84.8588V55.5224H87.258V59.6107H91.3463V62.0098Z" fill="url(#paint4_linear)"/>
<path d="M102.968 48.4663C100.119 48.3565 97.8599 46.0365 97.8242 43.1846L97.8094 42H74.3114L74.2966 43.1846C74.2609 46.0365 72.0017 48.3565 69.1534 48.4663L68 48.5107V58.1718C68 66.8991 72.5251 74.9964 79.8094 79.3037L86.0604 83L92.3115 79.3037C99.5959 74.9965 104.121 66.8992 104.121 58.1718V48.5107L102.968 48.4663ZM86.0604 71.7036C80.0539 71.7036 75.1673 66.817 75.1673 60.8105C75.1673 54.804 80.0539 49.9173 86.0604 49.9173C92.0669 49.9173 96.9536 54.8039 96.9536 60.8104C96.9536 66.8169 92.0669 71.7036 86.0604 71.7036Z" fill="url(#paint5_linear)"/>
<defs>
<filter id="filter0_f" x="33" y="8" width="106" height="106" filterUnits="userSpaceOnUse" color-interpolation-filters="sRGB">
<feFlood flood-opacity="0" result="BackgroundImageFix"/>
<feBlend mode="normal" in="SourceGraphic" in2="BackgroundImageFix" result="shape"/>
<feGaussianBlur stdDeviation="7.5" result="effect1_foregroundBlur"/>
</filter>
<filter id="filter1_d" x="0" y="0" width="172" height="172" filterUnits="userSpaceOnUse" color-interpolation-filters="sRGB">
<feFlood flood-opacity="0" result="BackgroundImageFix"/>
<feColorMatrix in="SourceAlpha" type="matrix" values="0 0 0 0 0 0 0 0 0 0 0 0 0 0 0 0 0 0 127 0"/>
<feOffset dy="25"/>
<feGaussianBlur stdDeviation="22.5"/>
<feColorMatrix type="matrix" values="0 0 0 0 0.867118 0 0 0 0 0.908897 0 0 0 0 0.920833 0 0 0 1 0"/>
<feBlend mode="multiply" in2="BackgroundImageFix" result="effect1_dropShadow"/>
<feBlend mode="normal" in="SourceGraphic" in2="effect1_dropShadow" result="shape"/>
</filter>
<linearGradient id="paint0_linear" x1="86" y1="23" x2="86" y2="99" gradientUnits="userSpaceOnUse">
<stop stop-color="white" stop-opacity="0.5"/>
<stop offset="1" stop-color="white"/>
</linearGradient>
<linearGradient id="paint1_linear" x1="86" y1="23" x2="86" y2="99" gradientUnits="userSpaceOnUse">
<stop stop-color="#00D1B3"/>
<stop offset="1" stop-color="#00AB8E"/>
</linearGradient>
<linearGradient id="paint2_linear" x1="86" y1="20" x2="86" y2="102" gradientUnits="userSpaceOnUse">
<stop stop-color="#D9FCF8"/>
<stop offset="1" stop-color="white"/>
</linearGradient>
<linearGradient id="paint3_linear" x1="86" y1="23" x2="86" y2="99" gradientUnits="userSpaceOnUse">
<stop stop-color="#00D1B3"/>
<stop offset="1" stop-color="#00AB8E"/>
</linearGradient>
<linearGradient id="paint4_linear" x1="86.0584" y1="52.3163" x2="86.0584" y2="69.3042" gradientUnits="userSpaceOnUse">
<stop stop-color="#00D1B3"/>
<stop offset="1" stop-color="#00AB8E"/>
</linearGradient>
<linearGradient id="paint5_linear" x1="86.0605" y1="42" x2="86.0605" y2="83" gradientUnits="userSpaceOnUse">
<stop stop-color="#00D1B3"/>
<stop offset="1" stop-color="#00AB8E"/>
</linearGradient>
</defs>
</svg>
