<svg width="32" height="41" viewBox="0 0 32 41" fill="none" xmlns="http://www.w3.org/2000/svg">
<path d="M31.2433 21.7812H16.2342C14.8595 24.0724 11.1486 24.3169 8.48348 24.2549C4.3034 24.1572 0 28.1739 0 33.5055V39.7988C0 40.4619 0.538125 41 1.20117 41H6.00586C6.66891 41 7.20703 40.4619 7.20703 39.7988V33.1587C7.20703 32.1842 8.00061 31.3906 8.97516 31.3906C9.90647 31.3906 10.6688 32.1081 10.7473 33.0603C11.0588 36.8319 13.7254 38.8835 17.4634 38.58C23.5181 38.09 31.4082 31.5155 31.2433 21.7812ZM12.5859 14.2779C15.4903 14.9402 16.8196 17.2512 16.8444 19.3789H31.0255C29.8307 12.5474 23.5846 7.36719 16.2527 7.36719H14.9113C13.309 7.36719 12.0117 6.06992 12.0117 4.46756V1.20117C12.0117 0.538125 11.4736 0 10.8105 0H6.00586C5.34281 0 4.80469 0.538125 4.80469 1.20117V4.19049C4.80469 9.36193 8.14635 13.2665 12.5859 14.2779Z" fill="url(#paint0_linear)"/>
<defs>
<linearGradient id="paint0_linear" x1="15.6229" y1="0" x2="15.6229" y2="41" gradientUnits="userSpaceOnUse">
<stop stop-color="#ffffff"/>
<stop offset="1" stop-color="#ffffff"/>
</linearGradient>
</defs>
</svg>
