<svg width="88" height="88" viewBox="0 0 88 88" fill="none" xmlns="http://www.w3.org/2000/svg">
<circle cx="44" cy="44" r="42.5" stroke="url(#paint0_linear)" stroke-width="3"/>
<g filter="url(#filter0_d)">
<circle cx="44" cy="44" r="31" fill="url(#paint1_linear)"/>
<circle cx="44" cy="44" r="32.5" stroke="url(#paint2_linear)" stroke-width="3"/>
</g>
<path d="M44.415 35.8066C40.4168 35.8066 37.1641 39.0594 37.1641 43.0576C37.1641 47.0558 40.4168 50.3085 44.415 50.3085C48.4131 50.3085 51.666 47.0558 51.666 43.0576C51.666 39.0594 48.4131 35.8066 44.415 35.8066ZM48.929 44.0816H45.439V47.5716H43.391V44.0816H39.901V42.0335H43.391V38.5436H45.439V42.0335H48.929V44.0816Z" fill="url(#paint3_linear)"/>
<path d="M58.8503 32.52C56.4188 32.4263 54.4902 30.4458 54.4597 28.0112L54.447 27H34.3878L34.3752 28.0112C34.3447 30.4458 32.4161 32.4263 29.9846 32.52L29 32.5579V40.8052C29 48.2554 32.8629 55.1677 39.0812 58.8447L44.4175 62L49.7537 58.8447C55.9721 55.1678 59.835 48.2554 59.835 40.8052V32.5579L58.8503 32.52ZM44.4175 52.3568C39.29 52.3568 35.1184 48.1852 35.1184 43.0577C35.1184 37.9302 39.2899 33.7587 44.4175 33.7587C49.5449 33.7587 53.7165 37.9302 53.7165 43.0577C53.7165 48.1852 49.5449 52.3568 44.4175 52.3568Z" fill="url(#paint4_linear)"/>
<defs>
<filter id="filter0_d" x="5" y="8" width="78" height="78" filterUnits="userSpaceOnUse" color-interpolation-filters="sRGB">
<feFlood flood-opacity="0" result="BackgroundImageFix"/>
<feColorMatrix in="SourceAlpha" type="matrix" values="0 0 0 0 0 0 0 0 0 0 0 0 0 0 0 0 0 0 127 0"/>
<feOffset dy="3"/>
<feGaussianBlur stdDeviation="2.5"/>
<feColorMatrix type="matrix" values="0 0 0 0 0 0 0 0 0 0.670833 0 0 0 0 0.557921 0 0 0 0.3 0"/>
<feBlend mode="multiply" in2="BackgroundImageFix" result="effect1_dropShadow"/>
<feBlend mode="normal" in="SourceGraphic" in2="effect1_dropShadow" result="shape"/>
</filter>
<linearGradient id="paint0_linear" x1="44" y1="0" x2="44" y2="88" gradientUnits="userSpaceOnUse">
<stop stop-color="#00D1B3"/>
<stop offset="1" stop-color="#00AB8E"/>
</linearGradient>
<linearGradient id="paint1_linear" x1="44" y1="13" x2="44" y2="75" gradientUnits="userSpaceOnUse">
<stop stop-color="#00D1B3"/>
<stop offset="1" stop-color="#00AB8E"/>
</linearGradient>
<linearGradient id="paint2_linear" x1="44" y1="13" x2="44" y2="75" gradientUnits="userSpaceOnUse">
<stop stop-color="white"/>
<stop offset="1" stop-color="#ECF7FA"/>
</linearGradient>
<linearGradient id="paint3_linear" x1="44.415" y1="35.8066" x2="44.415" y2="50.3085" gradientUnits="userSpaceOnUse">
<stop stop-color="white"/>
<stop offset="1" stop-color="#ECF7FA"/>
</linearGradient>
<linearGradient id="paint4_linear" x1="44.4175" y1="27" x2="44.4175" y2="62" gradientUnits="userSpaceOnUse">
<stop stop-color="white"/>
<stop offset="1" stop-color="#ECF7FA"/>
</linearGradient>
</defs>
</svg>
