<svg width="88" height="88" viewBox="0 0 88 88" fill="none" xmlns="http://www.w3.org/2000/svg">
<rect width="88" height="88" rx="44" fill="url(#paint0_linear)"/>
<g filter="url(#filter0_d)">
<circle cx="44" cy="44" r="31" fill="url(#paint1_linear)"/>
</g>
<path d="M60.9998 34.004L60.994 32.8647H53.2077V40.0669C53.2077 40.8778 53.0916 41.6716 52.873 42.4291C55.0232 42.3637 57.0332 41.4938 58.5574 39.9621C60.1434 38.3684 61.0108 36.2525 60.9998 34.004V34.004Z" fill="url(#paint2_linear)"/>
<path d="M39.5981 55.2753C41.2714 55.2753 42.6327 53.914 42.6327 52.2408V50.9219L34.7129 55.2753H39.5981Z" fill="url(#paint3_linear)"/>
<path d="M33.6694 32.7121C32.1915 33.2547 30.8565 34.0781 29.7017 35.1596C28.5469 36.2411 27.6376 37.5191 26.9991 38.9583C26.3362 40.4527 26 42.0472 26 43.6972V50.1752C26 51.7866 26.828 53.2382 28.2149 54.0585C28.9294 54.481 29.7191 54.6929 30.5103 54.6929C31.2546 54.6929 32.0003 54.5052 32.6849 54.1288L47.8366 45.8001C49.9279 44.6504 51.2271 42.4537 51.2271 40.0672V32.865L38.4637 32.0259C36.8169 31.9177 35.2042 32.1486 33.6694 32.7121V32.7121Z" fill="url(#paint4_linear)"/>
<defs>
<filter id="filter0_d" x="8" y="11" width="72" height="72" filterUnits="userSpaceOnUse" color-interpolation-filters="sRGB">
<feFlood flood-opacity="0" result="BackgroundImageFix"/>
<feColorMatrix in="SourceAlpha" type="matrix" values="0 0 0 0 0 0 0 0 0 0 0 0 0 0 0 0 0 0 127 0"/>
<feOffset dy="3"/>
<feGaussianBlur stdDeviation="2.5"/>
<feColorMatrix type="matrix" values="0 0 0 0 0 0 0 0 0 0.608333 0 0 0 0 0.512281 0 0 0 1 0"/>
<feBlend mode="normal" in2="BackgroundImageFix" result="effect1_dropShadow"/>
<feBlend mode="normal" in="SourceGraphic" in2="effect1_dropShadow" result="shape"/>
</filter>
<linearGradient id="paint0_linear" x1="44" y1="0" x2="44" y2="88" gradientUnits="userSpaceOnUse">
<stop stop-color="#00D1B3"/>
<stop offset="1" stop-color="#00AB8E"/>
</linearGradient>
<linearGradient id="paint1_linear" x1="44" y1="13" x2="44" y2="75" gradientUnits="userSpaceOnUse">
<stop stop-color="white"/>
<stop offset="1" stop-color="#ECF7FA"/>
</linearGradient>
<linearGradient id="paint2_linear" x1="56.9365" y1="32.8647" x2="56.9365" y2="42.4291" gradientUnits="userSpaceOnUse">
<stop stop-color="#00D1B3"/>
<stop offset="1" stop-color="#00AB8E"/>
</linearGradient>
<linearGradient id="paint3_linear" x1="38.6728" y1="50.9219" x2="38.6728" y2="55.2753" gradientUnits="userSpaceOnUse">
<stop stop-color="#00D1B3"/>
<stop offset="1" stop-color="#00AB8E"/>
</linearGradient>
<linearGradient id="paint4_linear" x1="38.6136" y1="32" x2="38.6136" y2="54.6929" gradientUnits="userSpaceOnUse">
<stop stop-color="#00D1B3"/>
<stop offset="1" stop-color="#00AB8E"/>
</linearGradient>
</defs>
</svg>
