<svg width="108" height="108" viewBox="0 0 108 108" fill="none" xmlns="http://www.w3.org/2000/svg">
<g filter="url(#filter0_f)">
<path d="M97 54C97 30.2518 77.7482 11 54 11C30.2518 11 11 30.2518 11 54C11 77.7482 30.2518 97 54 97C77.7482 97 97 77.7482 97 54Z" stroke="url(#paint0_linear)" stroke-width="2"/>
</g>
<path d="M97 54C97 30.2518 77.7482 11 54 11C30.2518 11 11 30.2518 11 54C11 77.7482 30.2518 97 54 97C77.7482 97 97 77.7482 97 54Z" stroke="url(#paint1_linear)" stroke-width="2"/>
<g opacity="0.5" filter="url(#filter1_f)">
<path opacity="0.5" d="M84.7992 54.0002C84.7992 36.9898 71.0096 23.2002 53.9992 23.2002C36.9888 23.2002 23.1992 36.9898 23.1992 54.0002C23.1992 71.0106 36.9888 84.8002 53.9992 84.8002C71.0096 84.8002 84.7992 71.0106 84.7992 54.0002Z" fill="url(#paint2_linear)"/>
</g>
<path d="M86.108 53.9998C86.108 36.2667 71.7325 21.8911 53.9993 21.8911C36.2662 21.8911 21.8906 36.2667 21.8906 53.9998C21.8906 71.733 36.2662 86.1085 53.9993 86.1085C71.7325 86.1085 86.108 71.733 86.108 53.9998Z" fill="url(#paint3_linear)" stroke="url(#paint4_linear)" stroke-width="3"/>
<path d="M54.415 46.8066C50.4168 46.8066 47.1641 50.0594 47.1641 54.0576C47.1641 58.0558 50.4168 61.3085 54.415 61.3085C58.4131 61.3085 61.666 58.0558 61.666 54.0576C61.666 50.0594 58.4131 46.8066 54.415 46.8066ZM58.929 55.0816H55.439V58.5716H53.391V55.0816H49.901V53.0335H53.391V49.5436H55.439V53.0335H58.929V55.0816Z" fill="url(#paint5_linear)"/>
<path d="M68.8503 43.52C66.4188 43.4263 64.4902 41.4458 64.4597 39.0112L64.447 38H44.3878L44.3752 39.0112C44.3447 41.4458 42.4161 43.4263 39.9846 43.52L39 43.5579V51.8052C39 59.2554 42.8629 66.1677 49.0812 69.8447L54.4175 73L59.7537 69.8447C65.9721 66.1678 69.835 59.2554 69.835 51.8052V43.5579L68.8503 43.52ZM54.4175 63.3568C49.29 63.3568 45.1184 59.1852 45.1184 54.0577C45.1184 48.9302 49.2899 44.7587 54.4175 44.7587C59.5449 44.7587 63.7165 48.9302 63.7165 54.0577C63.7165 59.1852 59.5449 63.3568 54.4175 63.3568Z" fill="url(#paint6_linear)"/>
<defs>
<filter id="filter0_f" x="0" y="0" width="108" height="108" filterUnits="userSpaceOnUse" color-interpolation-filters="sRGB">
<feFlood flood-opacity="0" result="BackgroundImageFix"/>
<feBlend mode="normal" in="SourceGraphic" in2="BackgroundImageFix" result="shape"/>
<feGaussianBlur stdDeviation="5" result="effect1_foregroundBlur"/>
</filter>
<filter id="filter1_f" x="13.1992" y="13.2002" width="81.6" height="81.6" filterUnits="userSpaceOnUse" color-interpolation-filters="sRGB">
<feFlood flood-opacity="0" result="BackgroundImageFix"/>
<feBlend mode="normal" in="SourceGraphic" in2="BackgroundImageFix" result="shape"/>
<feGaussianBlur stdDeviation="5" result="effect1_foregroundBlur"/>
</filter>
<linearGradient id="paint0_linear" x1="54" y1="10" x2="54" y2="98" gradientUnits="userSpaceOnUse">
<stop stop-color="#00D1B3"/>
<stop offset="1" stop-color="#00AB8E"/>
</linearGradient>
<linearGradient id="paint1_linear" x1="54" y1="10" x2="54" y2="98" gradientUnits="userSpaceOnUse">
<stop stop-color="#00D1B3"/>
<stop offset="1" stop-color="#00AB8E"/>
</linearGradient>
<linearGradient id="paint2_linear" x1="53.9992" y1="23.2002" x2="53.9992" y2="84.8002" gradientUnits="userSpaceOnUse">
<stop stop-color="#00D1B3"/>
<stop offset="1" stop-color="#00AB8E"/>
</linearGradient>
<linearGradient id="paint3_linear" x1="53.9993" y1="23.3911" x2="53.9993" y2="84.6085" gradientUnits="userSpaceOnUse">
<stop stop-color="#00D1B3"/>
<stop offset="1" stop-color="#00AB8E"/>
</linearGradient>
<linearGradient id="paint4_linear" x1="53.9993" y1="23.3911" x2="53.9993" y2="84.6085" gradientUnits="userSpaceOnUse">
<stop stop-color="white"/>
<stop offset="1" stop-color="#ECF7FA"/>
</linearGradient>
<linearGradient id="paint5_linear" x1="54.415" y1="46.8066" x2="54.415" y2="61.3085" gradientUnits="userSpaceOnUse">
<stop stop-color="white"/>
<stop offset="1" stop-color="#ECF7FA"/>
</linearGradient>
<linearGradient id="paint6_linear" x1="54.4175" y1="38" x2="54.4175" y2="73" gradientUnits="userSpaceOnUse">
<stop stop-color="white"/>
<stop offset="1" stop-color="#ECF7FA"/>
</linearGradient>
</defs>
</svg>
