<?xml version="1.0" encoding="utf-8"?>
<!-- Generator: Adobe Illustrator 24.1.0, SVG Export Plug-In . SVG Version: 6.00 Build 0)  -->
<svg version="1.1" id="Layer_1" xmlns="http://www.w3.org/2000/svg" xmlns:xlink="http://www.w3.org/1999/xlink" x="0px" y="0px"
	 viewBox="0 0 88 88" style="enable-background:new 0 0 88 88;" xml:space="preserve">
<style type="text/css">
	.st0{fill:url(#SVGID_1_);}
	.st1{opacity:0.5;}
	.st2{fill:url(#SVGID_2_);}
	.st3{fill:url(#SVGID_3_);}
	.st4{fill:url(#SVGID_4_);}
	.st5{fill:url(#SVGID_5_);}
</style>
<linearGradient id="SVGID_1_" gradientUnits="userSpaceOnUse" x1="44" y1="137.8898" x2="44" y2="49.8898" gradientTransform="matrix(1 0 0 -1 0 137.8898)">
	<stop  offset="0" style="stop-color:#00D1B3"/>
	<stop  offset="1" style="stop-color:#00AB8E"/>
</linearGradient>
<path class="st0" d="M44,0L44,0c24.3,0,44,19.7,44,44l0,0c0,24.3-19.7,44-44,44l0,0C19.7,88,0,68.3,0,44l0,0C0,19.7,19.7,0,44,0z"/>
<g class="st1">
	
		<linearGradient id="SVGID_2_" gradientUnits="userSpaceOnUse" x1="43.9992" y1="124.6896" x2="43.9992" y2="63.0896" gradientTransform="matrix(1 0 0 -1 0 137.8898)">
		<stop  offset="0" style="stop-color:#00D1B3"/>
		<stop  offset="1" style="stop-color:#00AB8E"/>
	</linearGradient>
	<path class="st2" d="M44,13.2L44,13.2C61,13.2,74.8,27,74.8,44v0C74.8,61,61,74.8,44,74.8h0C27,74.8,13.2,61,13.2,44v0
		C13.2,27,27,13.2,44,13.2z"/>
</g>
<g>
	
		<linearGradient id="SVGID_3_" gradientUnits="userSpaceOnUse" x1="43.9993" y1="124.4987" x2="43.9993" y2="63.2813" gradientTransform="matrix(1 0 0 -1 0 137.8898)">
		<stop  offset="0" style="stop-color:#D9FCF8"/>
		<stop  offset="1" style="stop-color:#FFFFFF"/>
	</linearGradient>
	<path class="st3" d="M44,13.4L44,13.4c16.9,0,30.6,13.7,30.6,30.6v0c0,16.9-13.7,30.6-30.6,30.6l0,0c-16.9,0-30.6-13.7-30.6-30.6v0
		C13.4,27.1,27.1,13.4,44,13.4z"/>
</g>
<linearGradient id="SVGID_4_" gradientUnits="userSpaceOnUse" x1="44.4151" y1="101.0832" x2="44.4151" y2="86.5813" gradientTransform="matrix(1 0 0 -1 0 137.8898)">
	<stop  offset="0" style="stop-color:#00D1B3"/>
	<stop  offset="1" style="stop-color:#00AB8E"/>
</linearGradient>
<path class="st4" d="M44.4,36.8c-4,0-7.3,3.3-7.3,7.3s3.3,7.3,7.3,7.3c4,0,7.3-3.3,7.3-7.3S48.4,36.8,44.4,36.8z M48.9,45.1h-3.5
	v3.5h-2v-3.5h-3.5v-2h3.5v-3.5h2V43h3.5V45.1z"/>
<linearGradient id="SVGID_5_" gradientUnits="userSpaceOnUse" x1="44.4175" y1="109.8898" x2="44.4175" y2="74.8898" gradientTransform="matrix(1 0 0 -1 0 137.8898)">
	<stop  offset="0" style="stop-color:#00D1B3"/>
	<stop  offset="1" style="stop-color:#00AB8E"/>
</linearGradient>
<path class="st5" d="M58.9,33.5c-2.4-0.1-4.4-2.1-4.4-4.5l0-1H34.4l0,1c0,2.4-2,4.4-4.4,4.5l-1,0v8.2c0,7.5,3.9,14.4,10.1,18
	l5.3,3.2l5.3-3.2c6.2-3.7,10.1-10.6,10.1-18v-8.2L58.9,33.5z M44.4,53.4c-5.1,0-9.3-4.2-9.3-9.3s4.2-9.3,9.3-9.3
	c5.1,0,9.3,4.2,9.3,9.3S49.5,53.4,44.4,53.4z"/>
</svg>
