<svg width="88" height="88" viewBox="0 0 88 88" fill="none" xmlns="http://www.w3.org/2000/svg">
<circle cx="44" cy="44" r="42.5" stroke="url(#paint0_linear)" stroke-width="3"/>
<rect x="13" y="13" width="61.2174" height="61.2174" rx="30.6087" fill="url(#paint1_linear)"/>
<g filter="url(#filter0_d)">
<circle cx="44" cy="44" r="31" fill="url(#paint2_linear)"/>
<circle cx="44" cy="44" r="32.5" stroke="url(#paint3_linear)" stroke-width="3"/>
</g>
<path d="M58.6711 45.5938H45.8585C44.685 47.5496 41.5171 47.7584 39.242 47.7054C35.6736 47.622 32 51.0509 32 55.6022V60.9746C32 61.5406 32.4594 62 33.0254 62H37.127C37.693 62 38.1523 61.5406 38.1523 60.9746V55.3062C38.1523 54.4743 38.8298 53.7969 39.6617 53.7969C40.4567 53.7969 41.1075 54.4094 41.1745 55.2222C41.4404 58.4419 43.7168 60.1933 46.9078 59.9342C52.0765 59.5158 58.8119 53.9035 58.6711 45.5938ZM42.744 39.1885C45.2234 39.7538 46.3582 41.7267 46.3794 43.543H58.4852C57.4652 37.7112 52.1332 33.2891 45.8742 33.2891H44.7292C43.3613 33.2891 42.2539 32.1816 42.2539 30.8138V28.0254C42.2539 27.4594 41.7945 27 41.2285 27H37.127C36.5609 27 36.1016 27.4594 36.1016 28.0254V30.5772C36.1016 34.9919 38.9542 38.3251 42.744 39.1885Z" fill="url(#paint4_linear)"/>
<defs>
<filter id="filter0_d" x="5" y="8" width="78" height="78" filterUnits="userSpaceOnUse" color-interpolation-filters="sRGB">
<feFlood flood-opacity="0" result="BackgroundImageFix"/>
<feColorMatrix in="SourceAlpha" type="matrix" values="0 0 0 0 0 0 0 0 0 0 0 0 0 0 0 0 0 0 127 0"/>
<feOffset dy="3"/>
<feGaussianBlur stdDeviation="2.5"/>
<feColorMatrix type="matrix" values="0 0 0 0 0 0 0 0 0 0.670833 0 0 0 0 0.557921 0 0 0 0.3 0"/>
<feBlend mode="multiply" in2="BackgroundImageFix" result="effect1_dropShadow"/>
<feBlend mode="normal" in="SourceGraphic" in2="effect1_dropShadow" result="shape"/>
</filter>
<linearGradient id="paint0_linear" x1="44" y1="0" x2="44" y2="88" gradientUnits="userSpaceOnUse">
<stop stop-color="#00D1B3"/>
<stop offset="1" stop-color="#00AB8E"/>
</linearGradient>
<linearGradient id="paint1_linear" x1="43.6087" y1="13" x2="43.6087" y2="74.2174" gradientUnits="userSpaceOnUse">
<stop stop-color="#D9FCF8"/>
<stop offset="1" stop-color="white"/>
</linearGradient>
<linearGradient id="paint2_linear" x1="44" y1="13" x2="44" y2="75" gradientUnits="userSpaceOnUse">
<stop stop-color="#00D1B3"/>
<stop offset="1" stop-color="#00AB8E"/>
</linearGradient>
<linearGradient id="paint3_linear" x1="44" y1="13" x2="44" y2="75" gradientUnits="userSpaceOnUse">
<stop stop-color="white"/>
<stop offset="1" stop-color="#ECF7FA"/>
</linearGradient>
<linearGradient id="paint4_linear" x1="45.3366" y1="27" x2="45.3366" y2="62" gradientUnits="userSpaceOnUse">
<stop stop-color="white"/>
<stop offset="1" stop-color="#ECF7FA"/>
</linearGradient>
</defs>
</svg>
