<svg width="152" height="152" viewBox="0 0 152 152" fill="none" xmlns="http://www.w3.org/2000/svg">
<circle cx="76" cy="51" r="42.5" stroke="url(#paint0_linear)" stroke-width="3"/>
<g filter="url(#filter0_d)">
<rect x="45" y="20" width="61.2174" height="61.2174" rx="30.6087" fill="url(#paint1_linear)"/>
</g>
<g filter="url(#filter1_d)">
<circle cx="76" cy="51" r="31" fill="url(#paint2_linear)"/>
<circle cx="76" cy="51" r="32.5" stroke="url(#paint3_linear)" stroke-width="3"/>
</g>
<path d="M90.6711 52.5938H77.8585C76.685 54.5496 73.5171 54.7584 71.242 54.7054C67.6736 54.622 64 58.0509 64 62.6022V67.9746C64 68.5406 64.4594 69 65.0254 69H69.127C69.693 69 70.1523 68.5406 70.1523 67.9746V62.3062C70.1523 61.4743 70.8298 60.7969 71.6617 60.7969C72.4567 60.7969 73.1075 61.4094 73.1745 62.2222C73.4404 65.4419 75.7168 67.1933 78.9078 66.9342C84.0765 66.5158 90.8119 60.9035 90.6711 52.5938V52.5938ZM74.744 46.1885C77.2234 46.7538 78.3582 48.7267 78.3794 50.543H90.4852C89.4652 44.7112 84.1332 40.2891 77.8742 40.2891H76.7292C75.3613 40.2891 74.2539 39.1816 74.2539 37.8138V35.0254C74.2539 34.4594 73.7945 34 73.2285 34H69.127C68.5609 34 68.1016 34.4594 68.1016 35.0254V37.5772C68.1016 41.9919 70.9542 45.3251 74.744 46.1885Z" fill="url(#paint4_linear)"/>
<defs>
<filter id="filter0_d" x="0" y="0" width="151.217" height="151.217" filterUnits="userSpaceOnUse" color-interpolation-filters="sRGB">
<feFlood flood-opacity="0" result="BackgroundImageFix"/>
<feColorMatrix in="SourceAlpha" type="matrix" values="0 0 0 0 0 0 0 0 0 0 0 0 0 0 0 0 0 0 127 0"/>
<feOffset dy="25"/>
<feGaussianBlur stdDeviation="22.5"/>
<feColorMatrix type="matrix" values="0 0 0 0 0.867118 0 0 0 0 0.908897 0 0 0 0 0.920833 0 0 0 1 0"/>
<feBlend mode="multiply" in2="BackgroundImageFix" result="effect1_dropShadow"/>
<feBlend mode="normal" in="SourceGraphic" in2="effect1_dropShadow" result="shape"/>
</filter>
<filter id="filter1_d" x="37" y="15" width="78" height="78" filterUnits="userSpaceOnUse" color-interpolation-filters="sRGB">
<feFlood flood-opacity="0" result="BackgroundImageFix"/>
<feColorMatrix in="SourceAlpha" type="matrix" values="0 0 0 0 0 0 0 0 0 0 0 0 0 0 0 0 0 0 127 0"/>
<feOffset dy="3"/>
<feGaussianBlur stdDeviation="2.5"/>
<feColorMatrix type="matrix" values="0 0 0 0 0 0 0 0 0 0.670833 0 0 0 0 0.557921 0 0 0 0.3 0"/>
<feBlend mode="multiply" in2="BackgroundImageFix" result="effect1_dropShadow"/>
<feBlend mode="normal" in="SourceGraphic" in2="effect1_dropShadow" result="shape"/>
</filter>
<linearGradient id="paint0_linear" x1="76" y1="7" x2="76" y2="95" gradientUnits="userSpaceOnUse">
<stop stop-color="#00D1B3"/>
<stop offset="1" stop-color="#00AB8E"/>
</linearGradient>
<linearGradient id="paint1_linear" x1="75.6087" y1="20" x2="75.6087" y2="81.2174" gradientUnits="userSpaceOnUse">
<stop stop-color="#D9FCF8"/>
<stop offset="1" stop-color="white"/>
</linearGradient>
<linearGradient id="paint2_linear" x1="76" y1="20" x2="76" y2="82" gradientUnits="userSpaceOnUse">
<stop stop-color="#00D1B3"/>
<stop offset="1" stop-color="#00AB8E"/>
</linearGradient>
<linearGradient id="paint3_linear" x1="76" y1="20" x2="76" y2="82" gradientUnits="userSpaceOnUse">
<stop stop-color="white"/>
<stop offset="1" stop-color="#ECF7FA"/>
</linearGradient>
<linearGradient id="paint4_linear" x1="77.3366" y1="34" x2="77.3366" y2="69" gradientUnits="userSpaceOnUse">
<stop stop-color="white"/>
<stop offset="1" stop-color="#ECF7FA"/>
</linearGradient>
</defs>
</svg>
