<svg width="27" height="35" viewBox="0 0 27 35" fill="none" xmlns="http://www.w3.org/2000/svg">
<path d="M26.6711 18.5938H13.8585C12.685 20.5496 9.51706 20.7584 7.24199 20.7054C3.67363 20.622 0 24.0509 0 28.6022V33.9746C0 34.5406 0.459375 35 1.02539 35H5.12695C5.69297 35 6.15235 34.5406 6.15235 33.9746V28.3062C6.15235 27.4743 6.82979 26.7969 7.66172 26.7969C8.45674 26.7969 9.10752 27.4094 9.17451 28.2222C9.44043 31.4419 11.7168 33.1933 14.9078 32.9342C20.0765 32.5158 26.8119 26.9035 26.6711 18.5938ZM10.744 12.1885C13.2234 12.7538 14.3582 14.7267 14.3794 16.543H26.4852C25.4652 10.7112 20.1332 6.28906 13.8742 6.28906H12.7292C11.3613 6.28906 10.2539 5.18164 10.2539 3.81377V1.02539C10.2539 0.459375 9.79453 0 9.22852 0H5.12695C4.56094 0 4.10156 0.459375 4.10156 1.02539V3.57725C4.10156 7.99189 6.9542 11.3251 10.744 12.1885Z" fill="url(#paint0_linear)"/>
<defs>
<linearGradient id="paint0_linear" x1="13.3366" y1="0" x2="13.3366" y2="35" gradientUnits="userSpaceOnUse">
<stop stop-color="#ECF7FA"/>
<stop offset="1" stop-color="#ffffff"/>
</linearGradient>
</defs>
</svg>
