<svg width="84" height="84" viewBox="0 0 84 84" fill="none" xmlns="http://www.w3.org/2000/svg">
<g filter="url(#filter0_f)">
<path d="M73 42C73 24.8792 59.1208 11 42 11C24.8792 11 11 24.8792 11 42C11 59.1208 24.8792 73 42 73C59.1208 73 73 59.1208 73 42Z" stroke="url(#paint0_linear)" stroke-width="2"/>
</g>
<path d="M73 42C73 24.8792 59.1208 11 42 11C24.8792 11 11 24.8792 11 42C11 59.1208 24.8792 73 42 73C59.1208 73 73 59.1208 73 42Z" stroke="url(#paint1_linear)" stroke-width="2"/>
<g opacity="0.5" filter="url(#filter1_f)">
<path opacity="0.5" d="M64.3996 41.9999C64.3996 29.6287 54.3708 19.5999 41.9996 19.5999C29.6284 19.5999 19.5996 29.6287 19.5996 41.9999C19.5996 54.371 29.6284 64.3999 41.9996 64.3999C54.3708 64.3999 64.3996 54.371 64.3996 41.9999Z" fill="url(#paint2_linear)"/>
</g>
<path d="M65.7619 42.0001C65.7619 28.8774 55.1238 18.2393 42.0011 18.2393C28.8783 18.2393 18.2402 28.8774 18.2402 42.0001C18.2402 55.1229 28.8783 65.761 42.0011 65.761C55.1238 65.761 65.7619 55.1229 65.7619 42.0001Z" fill="url(#paint3_linear)" stroke="url(#paint4_linear)" stroke-width="3"/>
<path d="M51.2888 42.75H42.503C41.6983 44.0911 39.526 44.2343 37.9659 44.198C35.5191 44.1408 33 46.492 33 49.613V53.2969C33 53.685 33.315 54 33.7031 54H36.5156C36.9038 54 37.2188 53.685 37.2188 53.2969V49.41C37.2188 48.8395 37.6833 48.375 38.2538 48.375C38.7989 48.375 39.2452 48.795 39.2911 49.3523C39.4734 51.5602 41.0344 52.7611 43.2225 52.5834C46.7667 52.2966 51.3853 48.4481 51.2888 42.75ZM40.3673 38.3578C42.0675 38.7455 42.8456 40.0983 42.8602 41.3438H51.1613C50.4619 37.3448 46.8056 34.3125 42.5138 34.3125H41.7286C40.7906 34.3125 40.0313 33.5531 40.0313 32.6152V30.7031C40.0313 30.315 39.7163 30 39.3281 30H36.5156C36.1275 30 35.8125 30.315 35.8125 30.7031V32.453C35.8125 35.4802 37.7686 37.7658 40.3673 38.3578Z" fill="url(#paint5_linear)"/>
<defs>
<filter id="filter0_f" x="0" y="0" width="84" height="84" filterUnits="userSpaceOnUse" color-interpolation-filters="sRGB">
<feFlood flood-opacity="0" result="BackgroundImageFix"/>
<feBlend mode="normal" in="SourceGraphic" in2="BackgroundImageFix" result="shape"/>
<feGaussianBlur stdDeviation="5" result="effect1_foregroundBlur"/>
</filter>
<filter id="filter1_f" x="9.59961" y="9.59985" width="64.8" height="64.8" filterUnits="userSpaceOnUse" color-interpolation-filters="sRGB">
<feFlood flood-opacity="0" result="BackgroundImageFix"/>
<feBlend mode="normal" in="SourceGraphic" in2="BackgroundImageFix" result="shape"/>
<feGaussianBlur stdDeviation="5" result="effect1_foregroundBlur"/>
</filter>
<linearGradient id="paint0_linear" x1="42" y1="10" x2="42" y2="74" gradientUnits="userSpaceOnUse">
<stop stop-color="#00D1B3"/>
<stop offset="1" stop-color="#00AB8E"/>
</linearGradient>
<linearGradient id="paint1_linear" x1="42" y1="10" x2="42" y2="74" gradientUnits="userSpaceOnUse">
<stop stop-color="#00D1B3"/>
<stop offset="1" stop-color="#00AB8E"/>
</linearGradient>
<linearGradient id="paint2_linear" x1="41.9996" y1="19.5999" x2="41.9996" y2="64.3999" gradientUnits="userSpaceOnUse">
<stop stop-color="#00D1B3"/>
<stop offset="1" stop-color="#00AB8E"/>
</linearGradient>
<linearGradient id="paint3_linear" x1="42.0011" y1="19.7393" x2="42.0011" y2="64.261" gradientUnits="userSpaceOnUse">
<stop stop-color="#00D1B3"/>
<stop offset="1" stop-color="#00AB8E"/>
</linearGradient>
<linearGradient id="paint4_linear" x1="42.0011" y1="19.7393" x2="42.0011" y2="64.261" gradientUnits="userSpaceOnUse">
<stop stop-color="white"/>
<stop offset="1" stop-color="#ECF7FA"/>
</linearGradient>
<linearGradient id="paint5_linear" x1="42.1451" y1="30" x2="42.1451" y2="54" gradientUnits="userSpaceOnUse">
<stop stop-color="white"/>
<stop offset="1" stop-color="#ECF7FA"/>
</linearGradient>
</defs>
</svg>
