<svg width="108" height="108" viewBox="0 0 108 108" fill="none" xmlns="http://www.w3.org/2000/svg">
<g filter="url(#filter0_f)">
<path d="M97 54C97 30.2518 77.7482 11 54 11C30.2518 11 11 30.2518 11 54C11 77.7482 30.2518 97 54 97C77.7482 97 97 77.7482 97 54Z" stroke="url(#paint0_linear)" stroke-width="2"/>
</g>
<path d="M97 54C97 30.2518 77.7482 11 54 11C30.2518 11 11 30.2518 11 54C11 77.7482 30.2518 97 54 97C77.7482 97 97 77.7482 97 54Z" stroke="url(#paint1_linear)" stroke-width="2"/>
<g opacity="0.5" filter="url(#filter1_f)">
<path opacity="0.5" d="M84.7992 54.0002C84.7992 36.9898 71.0096 23.2002 53.9992 23.2002C36.9888 23.2002 23.1992 36.9898 23.1992 54.0002C23.1992 71.0106 36.9888 84.8002 53.9992 84.8002C71.0096 84.8002 84.7992 71.0106 84.7992 54.0002Z" fill="url(#paint2_linear)"/>
</g>
<path d="M86.108 53.9998C86.108 36.2667 71.7325 21.8911 53.9993 21.8911C36.2662 21.8911 21.8906 36.2667 21.8906 53.9998C21.8906 71.733 36.2662 86.1085 53.9993 86.1085C71.7325 86.1085 86.108 71.733 86.108 53.9998Z" fill="url(#paint3_linear)" stroke="url(#paint4_linear)" stroke-width="3"/>
<path d="M51.1707 47.083C52.8511 47.083 54.2183 48.4501 54.2183 50.1306C54.2183 51.8111 52.8512 53.1782 51.1707 53.1782C49.4902 53.1782 48.123 51.8111 48.123 50.1306C48.123 48.4502 49.4902 47.083 51.1707 47.083Z" fill="url(#paint5_linear)"/>
<path d="M39.8724 64.7365C40.0066 66.3299 41.4446 67.0073 43.8376 66.6233C46.1186 66.2572 47.2627 67.3017 47.556 68.5596C47.556 68.5596 47.6411 69.2332 47.6928 69.9979C47.7308 70.5616 48.1979 71 48.7629 71H62.8019C63.3942 71 63.8744 70.5198 63.8744 69.9275V66.0453C63.8744 64.1335 64.0645 61.2955 65.4355 59.7861C69.2348 55.6034 71.3268 50.119 69.2051 44.5947C66.737 38.1686 59.8469 35.2951 53.3048 36.1461C50.9312 36.4548 48.6187 37.2709 46.6227 38.6005C42.9806 41.0267 40.3807 45.0772 40.0005 49.4695C39.889 50.7577 40.5009 52.3177 40.1929 53.5438C40.1308 53.7919 39.7942 54.9492 37.2717 57.4358C36.6682 58.0307 36.9601 59.0573 37.7863 59.2457C38.9097 59.5018 39.6833 59.6549 39.7995 59.7213C39.7995 59.7213 39.8281 64.211 39.8724 64.7365ZM57.1175 46.2865L57.2904 45.8668C57.1477 45.6129 57.0336 45.3408 56.9529 45.0549L56.5353 44.881C56.3895 44.8203 56.2945 44.6779 56.2945 44.5199V44.0395V43.5591C56.2945 43.4012 56.3895 43.2588 56.5353 43.1981L56.9529 43.0241C57.0336 42.7382 57.1477 42.4661 57.2904 42.2123L57.1174 41.7926C57.0573 41.6466 57.0908 41.4787 57.2025 41.367L57.5422 41.0273L57.8819 40.6876C57.9936 40.5759 58.1614 40.5423 58.3075 40.6026L58.7272 40.7755C58.9811 40.6328 59.2532 40.5187 59.5391 40.438L59.713 40.0203C59.7737 39.8745 59.9162 39.7795 60.0741 39.7795H60.5545H61.0349C61.1929 39.7795 61.3353 39.8745 61.396 40.0203L61.5699 40.438C61.8559 40.5187 62.1279 40.6328 62.3818 40.7755L62.8015 40.6026C62.9476 40.5424 63.1155 40.5759 63.2271 40.6876L63.5669 41.0273L63.9066 41.367C64.0182 41.4787 64.0518 41.6466 63.9916 41.7926L63.8187 42.2123C63.9613 42.4662 64.0754 42.7382 64.1561 43.0241L64.5737 43.1981C64.7196 43.2587 64.8145 43.4012 64.8145 43.5591V44.0395V44.5199C64.8145 44.6778 64.7195 44.8203 64.5737 44.881L64.1561 45.0549C64.0754 45.3409 63.9613 45.6129 63.8186 45.8668L63.9915 46.2865C64.0517 46.4325 64.0182 46.6004 63.9065 46.7121L63.5668 47.0518L63.2271 47.3914C63.1154 47.5031 62.9475 47.5367 62.8015 47.4765L62.3818 47.3035C62.1279 47.4462 61.8558 47.5603 61.5699 47.641L61.3959 48.0586C61.3353 48.2044 61.1928 48.2994 61.0348 48.2994H60.5545H60.0741C59.9161 48.2994 59.7737 48.2044 59.713 48.0586L59.5391 47.6411C59.2531 47.5604 58.9811 47.4463 58.7271 47.3035L58.3074 47.4765C58.1614 47.5366 57.9935 47.5031 57.8818 47.3914L57.5421 47.0518L57.2024 46.7121C57.0908 46.6004 57.0573 46.4325 57.1175 46.2865ZM45.3314 49.4716C45.3314 49.2551 45.4616 49.0598 45.6615 48.9766L46.234 48.7382C46.3447 48.3462 46.5011 47.9732 46.6967 47.6251L46.4596 47.0497C46.3771 46.8494 46.4231 46.6192 46.5762 46.4662L47.0419 46.0005L47.5076 45.5348C47.6607 45.3817 47.8909 45.3356 48.0911 45.4181L48.6666 45.6553C49.0147 45.4596 49.3876 45.3032 49.7797 45.1925L50.018 44.62C50.1012 44.4201 50.2965 44.2899 50.5131 44.2899H51.1717H51.8304C52.0469 44.2899 52.2422 44.4201 52.3254 44.62L52.5638 45.1925C52.9558 45.3032 53.3288 45.4596 53.6769 45.6553L54.2523 45.4181C54.4526 45.3356 54.6827 45.3817 54.8358 45.5348L55.3015 46.0005L55.7673 46.4662C55.9204 46.6193 55.9664 46.8495 55.8839 47.0497L55.6468 47.6251C55.8424 47.9732 55.9988 48.3461 56.1095 48.7382L56.682 48.9766C56.882 49.0598 57.0121 49.2551 57.0121 49.4716V50.1302V50.7889C57.0121 51.0054 56.8819 51.2007 56.682 51.2839L56.1095 51.5223C55.9988 51.9143 55.8424 52.2873 55.6468 52.6354L55.8839 53.2108C55.9664 53.411 55.9204 53.6412 55.7673 53.7943L55.3016 54.26L54.8359 54.7257C54.6828 54.8788 54.4526 54.9248 54.2525 54.8423L53.677 54.6052C53.3289 54.8008 52.956 54.9572 52.5639 55.0679L52.3254 55.6405C52.2422 55.8404 52.0469 55.9706 51.8304 55.9706H51.1718H50.5132C50.2967 55.9706 50.1014 55.8404 50.0182 55.6405L49.7798 55.068C49.3878 54.9573 49.0148 54.8009 48.6667 54.6052L48.0913 54.8424C47.8911 54.9249 47.6609 54.8788 47.5078 54.7257L47.0421 54.2601L46.5764 53.7944C46.4233 53.6413 46.3773 53.4111 46.4598 53.2109L46.6969 52.6355C46.5013 52.2874 46.3449 51.9144 46.2342 51.5223L45.6617 51.284C45.4618 51.2008 45.3316 51.0055 45.3316 50.7889V50.1303L45.3314 49.4716Z" fill="url(#paint6_linear)"/>
<path d="M60.553 41.8164C61.7787 41.8164 62.7759 42.8136 62.7759 44.0393C62.7759 45.265 61.7787 46.2622 60.553 46.2622C59.3272 46.2622 58.3301 45.265 58.3301 44.0393C58.3301 42.8136 59.3272 41.8164 60.553 41.8164Z" fill="url(#paint7_linear)"/>
<defs>
<filter id="filter0_f" x="0" y="0" width="108" height="108" filterUnits="userSpaceOnUse" color-interpolation-filters="sRGB">
<feFlood flood-opacity="0" result="BackgroundImageFix"/>
<feBlend mode="normal" in="SourceGraphic" in2="BackgroundImageFix" result="shape"/>
<feGaussianBlur stdDeviation="5" result="effect1_foregroundBlur"/>
</filter>
<filter id="filter1_f" x="13.1992" y="13.2002" width="81.6" height="81.6" filterUnits="userSpaceOnUse" color-interpolation-filters="sRGB">
<feFlood flood-opacity="0" result="BackgroundImageFix"/>
<feBlend mode="normal" in="SourceGraphic" in2="BackgroundImageFix" result="shape"/>
<feGaussianBlur stdDeviation="5" result="effect1_foregroundBlur"/>
</filter>
<linearGradient id="paint0_linear" x1="54" y1="10" x2="54" y2="98" gradientUnits="userSpaceOnUse">
<stop stop-color="#00D1B3"/>
<stop offset="1" stop-color="#00AB8E"/>
</linearGradient>
<linearGradient id="paint1_linear" x1="54" y1="10" x2="54" y2="98" gradientUnits="userSpaceOnUse">
<stop stop-color="#00D1B3"/>
<stop offset="1" stop-color="#00AB8E"/>
</linearGradient>
<linearGradient id="paint2_linear" x1="53.9992" y1="23.2002" x2="53.9992" y2="84.8002" gradientUnits="userSpaceOnUse">
<stop stop-color="#00D1B3"/>
<stop offset="1" stop-color="#00AB8E"/>
</linearGradient>
<linearGradient id="paint3_linear" x1="53.9993" y1="23.3911" x2="53.9993" y2="84.6085" gradientUnits="userSpaceOnUse">
<stop stop-color="#00D1B3"/>
<stop offset="1" stop-color="#00AB8E"/>
</linearGradient>
<linearGradient id="paint4_linear" x1="53.9993" y1="23.3911" x2="53.9993" y2="84.6085" gradientUnits="userSpaceOnUse">
<stop stop-color="white"/>
<stop offset="1" stop-color="#ECF7FA"/>
</linearGradient>
<linearGradient id="paint5_linear" x1="51.1707" y1="47.083" x2="51.1707" y2="53.1782" gradientUnits="userSpaceOnUse">
<stop stop-color="white"/>
<stop offset="1" stop-color="#ECF7FA"/>
</linearGradient>
<linearGradient id="paint6_linear" x1="53.5014" y1="36" x2="53.5014" y2="71" gradientUnits="userSpaceOnUse">
<stop stop-color="white"/>
<stop offset="1" stop-color="#ECF7FA"/>
</linearGradient>
<linearGradient id="paint7_linear" x1="60.553" y1="41.8164" x2="60.553" y2="46.2622" gradientUnits="userSpaceOnUse">
<stop stop-color="white"/>
<stop offset="1" stop-color="#ECF7FA"/>
</linearGradient>
</defs>
</svg>
