<?xml version="1.0" encoding="utf-8"?>
<!-- Generator: Adobe Illustrator 24.1.0, SVG Export Plug-In . SVG Version: 6.00 Build 0)  -->
<svg version="1.1" id="Layer_1" xmlns="http://www.w3.org/2000/svg" xmlns:xlink="http://www.w3.org/1999/xlink" x="0px" y="0px"
	 viewBox="0 0 88 88" style="enable-background:new 0 0 88 88;" xml:space="preserve">
<style type="text/css">
	.st0{fill:url(#SVGID_1_);}
	.st1{opacity:0.5;}
	.st2{fill:url(#SVGID_2_);}
	.st3{fill:url(#SVGID_3_);}
	.st4{fill:url(#SVGID_4_);}
	.st5{fill:url(#SVGID_5_);}
	.st6{fill:url(#SVGID_6_);}
</style>
<linearGradient id="SVGID_1_" gradientUnits="userSpaceOnUse" x1="44" y1="137.8898" x2="44" y2="49.8898" gradientTransform="matrix(1 0 0 -1 0 137.8898)">
	<stop  offset="0" style="stop-color:#00D1B3"/>
	<stop  offset="1" style="stop-color:#00AB8E"/>
</linearGradient>
<path class="st0" d="M44,0L44,0c24.3,0,44,19.7,44,44l0,0c0,24.3-19.7,44-44,44l0,0C19.7,88,0,68.3,0,44l0,0C0,19.7,19.7,0,44,0z"/>
<g class="st1">
	
		<linearGradient id="SVGID_2_" gradientUnits="userSpaceOnUse" x1="43.9992" y1="124.6896" x2="43.9992" y2="63.0896" gradientTransform="matrix(1 0 0 -1 0 137.8898)">
		<stop  offset="0" style="stop-color:#00D1B3"/>
		<stop  offset="1" style="stop-color:#00AB8E"/>
	</linearGradient>
	<path class="st2" d="M44,13.2L44,13.2C61,13.2,74.8,27,74.8,44v0C74.8,61,61,74.8,44,74.8h0C27,74.8,13.2,61,13.2,44v0
		C13.2,27,27,13.2,44,13.2z"/>
</g>
<g>
	
		<linearGradient id="SVGID_3_" gradientUnits="userSpaceOnUse" x1="43.9993" y1="124.4987" x2="43.9993" y2="63.2813" gradientTransform="matrix(1 0 0 -1 0 137.8898)">
		<stop  offset="0" style="stop-color:#D9FCF8"/>
		<stop  offset="1" style="stop-color:#FFFFFF"/>
	</linearGradient>
	<path class="st3" d="M44,13.4L44,13.4c16.9,0,30.6,13.7,30.6,30.6v0c0,16.9-13.7,30.6-30.6,30.6l0,0c-16.9,0-30.6-13.7-30.6-30.6v0
		C13.4,27.1,27.1,13.4,44,13.4z"/>
</g>
<linearGradient id="SVGID_4_" gradientUnits="userSpaceOnUse" x1="41.1707" y1="100.8068" x2="41.1707" y2="94.7116" gradientTransform="matrix(1 0 0 -1 0 137.8898)">
	<stop  offset="0" style="stop-color:#00D1B3"/>
	<stop  offset="1" style="stop-color:#00AB8E"/>
</linearGradient>
<path class="st4" d="M41.2,37.1c1.7,0,3,1.4,3,3s-1.4,3-3,3c-1.7,0-3-1.4-3-3C38.1,38.5,39.5,37.1,41.2,37.1z"/>
<linearGradient id="SVGID_5_" gradientUnits="userSpaceOnUse" x1="43.5014" y1="111.8898" x2="43.5014" y2="76.8898" gradientTransform="matrix(1 0 0 -1 0 137.8898)">
	<stop  offset="0" style="stop-color:#00D1B3"/>
	<stop  offset="1" style="stop-color:#00AB8E"/>
</linearGradient>
<path class="st5" d="M29.9,54.7c0.1,1.6,1.6,2.3,4,1.9c2.3-0.4,3.4,0.7,3.7,1.9c0,0,0.1,0.7,0.1,1.4c0,0.6,0.5,1,1.1,1h14
	c0.6,0,1.1-0.5,1.1-1.1V56c0-1.9,0.2-4.7,1.6-6.3c3.8-4.2,5.9-9.7,3.8-15.2c-2.5-6.4-9.4-9.3-15.9-8.4c-2.4,0.3-4.7,1.1-6.7,2.5
	C33,31,30.4,35.1,30,39.5c-0.1,1.3,0.5,2.8,0.2,4.1c-0.1,0.2-0.4,1.4-2.9,3.9c-0.6,0.6-0.3,1.6,0.5,1.8c1.1,0.3,1.9,0.4,2,0.5
	C29.8,49.7,29.8,54.2,29.9,54.7z M47.1,36.3l0.2-0.4c-0.1-0.3-0.3-0.5-0.3-0.8l-0.4-0.2c-0.1-0.1-0.2-0.2-0.2-0.4V34v-0.5
	c0-0.2,0.1-0.3,0.2-0.4L47,33c0.1-0.3,0.2-0.6,0.3-0.8l-0.2-0.4c-0.1-0.1,0-0.3,0.1-0.4l0.3-0.3l0.3-0.3c0.1-0.1,0.3-0.1,0.4-0.1
	l0.4,0.2c0.3-0.1,0.5-0.3,0.8-0.3l0.2-0.4c0.1-0.1,0.2-0.2,0.4-0.2h0.5H51c0.2,0,0.3,0.1,0.4,0.2l0.2,0.4c0.3,0.1,0.6,0.2,0.8,0.3
	l0.4-0.2c0.1-0.1,0.3,0,0.4,0.1l0.3,0.3l0.3,0.3c0.1,0.1,0.1,0.3,0.1,0.4l-0.2,0.4c0.1,0.3,0.3,0.5,0.3,0.8l0.4,0.2
	c0.1,0.1,0.2,0.2,0.2,0.4V34v0.5c0,0.2-0.1,0.3-0.2,0.4l-0.4,0.2c-0.1,0.3-0.2,0.6-0.3,0.8l0.2,0.4c0.1,0.1,0,0.3-0.1,0.4l-0.3,0.3
	l-0.3,0.3c-0.1,0.1-0.3,0.1-0.4,0.1l-0.4-0.2c-0.3,0.1-0.5,0.3-0.8,0.3l-0.2,0.4c-0.1,0.1-0.2,0.2-0.4,0.2h-0.5h-0.5
	c-0.2,0-0.3-0.1-0.4-0.2l-0.2-0.4c-0.3-0.1-0.6-0.2-0.8-0.3l-0.4,0.2c-0.1,0.1-0.3,0-0.4-0.1l-0.3-0.3l-0.3-0.3
	C47.1,36.6,47.1,36.4,47.1,36.3z M35.3,39.5c0-0.2,0.1-0.4,0.3-0.5l0.6-0.2c0.1-0.4,0.3-0.8,0.5-1.1L36.5,37c-0.1-0.2,0-0.4,0.1-0.6
	L37,36l0.5-0.5c0.2-0.2,0.4-0.2,0.6-0.1l0.6,0.2c0.3-0.2,0.7-0.4,1.1-0.5l0.2-0.6c0.1-0.2,0.3-0.3,0.5-0.3h0.7h0.7
	c0.2,0,0.4,0.1,0.5,0.3l0.2,0.6c0.4,0.1,0.8,0.3,1.1,0.5l0.6-0.2c0.2-0.1,0.4,0,0.6,0.1l0.5,0.5l0.5,0.5c0.2,0.2,0.2,0.4,0.1,0.6
	l-0.2,0.6c0.2,0.3,0.4,0.7,0.5,1.1l0.6,0.2c0.2,0.1,0.3,0.3,0.3,0.5v0.7v0.7c0,0.2-0.1,0.4-0.3,0.5l-0.6,0.2
	c-0.1,0.4-0.3,0.8-0.5,1.1l0.2,0.6c0.1,0.2,0,0.4-0.1,0.6l-0.5,0.5l-0.5,0.5c-0.2,0.2-0.4,0.2-0.6,0.1l-0.6-0.2
	c-0.3,0.2-0.7,0.4-1.1,0.5l-0.2,0.6C42.2,45.8,42,46,41.8,46h-0.7h-0.7c-0.2,0-0.4-0.1-0.5-0.3l-0.2-0.6c-0.4-0.1-0.8-0.3-1.1-0.5
	l-0.6,0.2c-0.2,0.1-0.4,0-0.6-0.1L37,44.3l-0.5-0.5c-0.2-0.2-0.2-0.4-0.1-0.6l0.2-0.6c-0.2-0.3-0.4-0.7-0.5-1.1l-0.6-0.2
	c-0.2-0.1-0.3-0.3-0.3-0.5v-0.7L35.3,39.5z"/>
<linearGradient id="SVGID_6_" gradientUnits="userSpaceOnUse" x1="50.553" y1="106.0734" x2="50.553" y2="101.6276" gradientTransform="matrix(1 0 0 -1 0 137.8898)">
	<stop  offset="0" style="stop-color:#00D1B3"/>
	<stop  offset="1" style="stop-color:#00AB8E"/>
</linearGradient>
<path class="st6" d="M50.6,31.8c1.2,0,2.2,1,2.2,2.2s-1,2.2-2.2,2.2c-1.2,0-2.2-1-2.2-2.2S49.3,31.8,50.6,31.8z"/>
</svg>
