<svg width="84" height="84" viewBox="0 0 84 84" fill="none" xmlns="http://www.w3.org/2000/svg">
<g filter="url(#filter0_f)">
<path d="M73 42C73 24.8792 59.1208 11 42 11C24.8792 11 11 24.8792 11 42C11 59.1208 24.8792 73 42 73C59.1208 73 73 59.1208 73 42Z" stroke="url(#paint0_linear)" stroke-width="2"/>
</g>
<path d="M73 42C73 24.8792 59.1208 11 42 11C24.8792 11 11 24.8792 11 42C11 59.1208 24.8792 73 42 73C59.1208 73 73 59.1208 73 42Z" stroke="url(#paint1_linear)" stroke-width="2"/>
<g opacity="0.5" filter="url(#filter1_f)">
<path opacity="0.5" d="M64.3996 41.9999C64.3996 29.6287 54.3708 19.5999 41.9996 19.5999C29.6284 19.5999 19.5996 29.6287 19.5996 41.9999C19.5996 54.371 29.6284 64.3999 41.9996 64.3999C54.3708 64.3999 64.3996 54.371 64.3996 41.9999Z" fill="url(#paint2_linear)"/>
</g>
<path d="M65.7619 42.0001C65.7619 28.8774 55.1238 18.2393 42.0011 18.2393C28.8783 18.2393 18.2402 28.8774 18.2402 42.0001C18.2402 55.1229 28.8783 65.761 42.0011 65.761C55.1238 65.761 65.7619 55.1229 65.7619 42.0001Z" fill="url(#paint3_linear)" stroke="url(#paint4_linear)" stroke-width="3"/>
<path d="M39.7519 37.5996C40.9042 37.5996 41.8417 38.5371 41.8417 39.6894C41.8417 40.8417 40.9043 41.7792 39.7519 41.7792C38.5996 41.7792 37.6621 40.8417 37.6621 39.6894C37.6621 38.5371 38.5996 37.5996 39.7519 37.5996Z" fill="url(#paint5_linear)"/>
<path d="M32.0031 49.7051C32.0951 50.7976 33.0812 51.2622 34.7221 50.9989C36.2862 50.7478 37.0708 51.464 37.2719 52.3266C37.2719 52.3266 37.3302 52.7885 37.3657 53.3128C37.3918 53.6994 37.712 54 38.0995 54H47.7262C48.1324 54 48.4616 53.6707 48.4616 53.2646V50.6025C48.4616 49.2915 48.592 47.3455 49.5321 46.3105C52.1373 43.4424 53.5718 39.6816 52.1169 35.8935C50.4246 31.4871 45.6999 29.5167 41.2139 30.1002C39.5863 30.3118 38.0006 30.8715 36.6319 31.7832C34.1344 33.4469 32.3517 36.2244 32.091 39.2362C32.0145 40.1196 32.4341 41.1893 32.2229 42.03C32.1803 42.2002 31.9495 42.9938 30.2198 44.6988C29.806 45.1067 30.0061 45.8107 30.5726 45.9399C31.343 46.1155 31.8735 46.2205 31.9531 46.266C31.9531 46.266 31.9728 49.3447 32.0031 49.7051ZM43.8283 37.0536L43.9469 36.7658C43.8491 36.5917 43.7708 36.4051 43.7155 36.2091L43.4291 36.0898C43.3291 36.0482 43.264 35.9506 43.264 35.8422V35.5128V35.1834C43.264 35.0751 43.3291 34.9775 43.4291 34.9358L43.7155 34.8166C43.7708 34.6205 43.849 34.4339 43.9469 34.2598L43.8283 33.972C43.787 33.8719 43.81 33.7568 43.8866 33.6802L44.1195 33.4473L44.3525 33.2144C44.4291 33.1378 44.5442 33.1147 44.6443 33.156L44.9321 33.2746C45.1062 33.1768 45.2928 33.0986 45.4889 33.0432L45.6081 32.7568C45.6497 32.6568 45.7474 32.5917 45.8557 32.5917H46.1851H46.5146C46.6229 32.5917 46.7205 32.6568 46.7622 32.7568L46.8814 33.0432C47.0775 33.0985 47.264 33.1767 47.4382 33.2746L47.726 33.156C47.8261 33.1148 47.9412 33.1378 48.0178 33.2144L48.2508 33.4473L48.4837 33.6802C48.5603 33.7568 48.5833 33.8719 48.542 33.972L48.4234 34.2598C48.5213 34.434 48.5995 34.6205 48.6548 34.8166L48.9412 34.9358C49.0412 34.9774 49.1063 35.0751 49.1063 35.1834V35.5128V35.8422C49.1063 35.9505 49.0411 36.0482 48.9412 36.0898L48.6548 36.2091C48.5995 36.4052 48.5213 36.5917 48.4234 36.7658L48.542 37.0536C48.5832 37.1537 48.5602 37.2689 48.4837 37.3454L48.2507 37.5784L48.0178 37.8113C47.9412 37.8878 47.8261 37.9109 47.7259 37.8696L47.4381 37.751C47.264 37.8488 47.0775 37.9271 46.8814 37.9824L46.7621 38.2688C46.7205 38.3687 46.6228 38.4339 46.5145 38.4339H46.1851H45.8557C45.7474 38.4339 45.6497 38.3687 45.6081 38.2688L45.4888 37.9824C45.2928 37.9271 45.1062 37.8489 44.9321 37.751L44.6443 37.8696C44.5441 37.9108 44.429 37.8878 44.3524 37.8113L44.1195 37.5784L43.8866 37.3454C43.81 37.2689 43.7871 37.1537 43.8283 37.0536ZM35.7464 39.2377C35.7464 39.0892 35.8357 38.9553 35.9728 38.8982L36.3654 38.7348C36.4413 38.466 36.5485 38.2102 36.6827 37.9715L36.5201 37.5769C36.4635 37.4396 36.4951 37.2818 36.6 37.1768L36.9194 36.8575L37.2387 36.5381C37.3437 36.4331 37.5015 36.4016 37.6388 36.4582L38.0334 36.6207C38.2721 36.4866 38.5279 36.3793 38.7967 36.3035L38.9601 35.9108C39.0172 35.7738 39.1511 35.6845 39.2996 35.6845H39.7512H40.2029C40.3513 35.6845 40.4853 35.7738 40.5423 35.9108L40.7058 36.3035C40.9746 36.3793 41.2304 36.4866 41.4691 36.6207L41.8637 36.4582C42.0009 36.4016 42.1588 36.4331 42.2638 36.5381L42.5831 36.8575L42.9025 37.1768C43.0075 37.2818 43.039 37.4396 42.9824 37.5769L42.8199 37.9715C42.954 38.2102 43.0613 38.4659 43.1371 38.7348L43.5297 38.8982C43.6668 38.9553 43.7561 39.0892 43.7561 39.2377V39.6893V40.1409C43.7561 40.2894 43.6668 40.4233 43.5297 40.4804L43.1371 40.6438C43.0613 40.9127 42.954 41.1684 42.8199 41.4071L42.9824 41.8017C43.039 41.939 43.0075 42.0968 42.9025 42.2018L42.5831 42.5211L42.2638 42.8405C42.1588 42.9455 42.001 42.977 41.8637 42.9204L41.4691 42.7578C41.2304 42.892 40.9747 42.9993 40.7059 43.0751L40.5424 43.4678C40.4853 43.6049 40.3514 43.6941 40.2029 43.6941H39.7513H39.2997C39.1512 43.6941 39.0173 43.6048 38.9602 43.4678L38.7968 43.0752C38.528 42.9993 38.2722 42.892 38.0335 42.7579L37.6389 42.9205C37.5017 42.9771 37.3438 42.9455 37.2388 42.8405L36.9195 42.5212L36.6002 42.2018C36.4952 42.0969 36.4636 41.939 36.5202 41.8017L36.6828 41.4072C36.5486 41.1685 36.4414 40.9127 36.3655 40.6439L35.9729 40.4804C35.8359 40.4234 35.7466 40.2895 35.7466 40.141V39.6894L35.7464 39.2377Z" fill="url(#paint6_linear)"/>
<path d="M46.1844 33.9885C47.0249 33.9885 47.7087 34.6723 47.7087 35.5128C47.7087 36.3533 47.0249 37.037 46.1844 37.037C45.3439 37.037 44.6602 36.3533 44.6602 35.5128C44.6602 34.6723 45.3439 33.9885 46.1844 33.9885Z" fill="url(#paint7_linear)"/>
<defs>
<filter id="filter0_f" x="0" y="0" width="84" height="84" filterUnits="userSpaceOnUse" color-interpolation-filters="sRGB">
<feFlood flood-opacity="0" result="BackgroundImageFix"/>
<feBlend mode="normal" in="SourceGraphic" in2="BackgroundImageFix" result="shape"/>
<feGaussianBlur stdDeviation="5" result="effect1_foregroundBlur"/>
</filter>
<filter id="filter1_f" x="9.59961" y="9.59985" width="64.8" height="64.8" filterUnits="userSpaceOnUse" color-interpolation-filters="sRGB">
<feFlood flood-opacity="0" result="BackgroundImageFix"/>
<feBlend mode="normal" in="SourceGraphic" in2="BackgroundImageFix" result="shape"/>
<feGaussianBlur stdDeviation="5" result="effect1_foregroundBlur"/>
</filter>
<linearGradient id="paint0_linear" x1="42" y1="10" x2="42" y2="74" gradientUnits="userSpaceOnUse">
<stop stop-color="#00D1B3"/>
<stop offset="1" stop-color="#00AB8E"/>
</linearGradient>
<linearGradient id="paint1_linear" x1="42" y1="10" x2="42" y2="74" gradientUnits="userSpaceOnUse">
<stop stop-color="#00D1B3"/>
<stop offset="1" stop-color="#00AB8E"/>
</linearGradient>
<linearGradient id="paint2_linear" x1="41.9996" y1="19.5999" x2="41.9996" y2="64.3999" gradientUnits="userSpaceOnUse">
<stop stop-color="#00D1B3"/>
<stop offset="1" stop-color="#00AB8E"/>
</linearGradient>
<linearGradient id="paint3_linear" x1="42.0011" y1="19.7393" x2="42.0011" y2="64.261" gradientUnits="userSpaceOnUse">
<stop stop-color="#00D1B3"/>
<stop offset="1" stop-color="#00AB8E"/>
</linearGradient>
<linearGradient id="paint4_linear" x1="42.0011" y1="19.7393" x2="42.0011" y2="64.261" gradientUnits="userSpaceOnUse">
<stop stop-color="white"/>
<stop offset="1" stop-color="#ECF7FA"/>
</linearGradient>
<linearGradient id="paint5_linear" x1="39.7519" y1="37.5996" x2="39.7519" y2="41.7792" gradientUnits="userSpaceOnUse">
<stop stop-color="white"/>
<stop offset="1" stop-color="#ECF7FA"/>
</linearGradient>
<linearGradient id="paint6_linear" x1="41.3487" y1="30" x2="41.3487" y2="54" gradientUnits="userSpaceOnUse">
<stop stop-color="white"/>
<stop offset="1" stop-color="#ECF7FA"/>
</linearGradient>
<linearGradient id="paint7_linear" x1="46.1844" y1="33.9885" x2="46.1844" y2="37.037" gradientUnits="userSpaceOnUse">
<stop stop-color="white"/>
<stop offset="1" stop-color="#ECF7FA"/>
</linearGradient>
</defs>
</svg>
