<svg width="88" height="88" viewBox="0 0 88 88" fill="none" xmlns="http://www.w3.org/2000/svg">
<circle cx="44" cy="44" r="42.5" stroke="url(#paint0_linear)" stroke-width="3"/>
<g filter="url(#filter0_d)">
<circle cx="44" cy="44" r="31" fill="url(#paint1_linear)"/>
<circle cx="44" cy="44" r="32.5" stroke="url(#paint2_linear)" stroke-width="3"/>
</g>
<path d="M41.2195 37.083C42.9 37.083 44.2671 38.4501 44.2671 40.1306C44.2671 41.8111 42.9 43.1782 41.2195 43.1782C39.539 43.1782 38.1719 41.8111 38.1719 40.1306C38.1719 38.4502 39.539 37.083 41.2195 37.083Z" fill="url(#paint3_linear)"/>
<path d="M29.9212 54.7365C30.0554 56.3299 31.4934 57.0073 33.8864 56.6233C36.1674 56.2572 37.3115 57.3017 37.6048 58.5596C37.6048 58.5596 37.6899 59.2332 37.7416 59.9979C37.7797 60.5616 38.2467 61 38.8118 61H52.8507C53.443 61 53.9232 60.5198 53.9232 59.9275V56.0453C53.9232 54.1335 54.1133 51.2955 55.4844 49.7861C59.2836 45.6034 61.3756 40.119 59.2539 34.5947C56.7859 28.1686 49.8957 25.2951 43.3536 26.1461C40.98 26.4548 38.6675 27.2709 36.6716 28.6005C33.0294 31.0267 30.4295 35.0772 30.0494 39.4695C29.9378 40.7577 30.5497 42.3177 30.2417 43.5438C30.1796 43.7919 29.843 44.9492 27.3205 47.4358C26.717 48.0307 27.0089 49.0573 27.8351 49.2457C28.9585 49.5018 29.7321 49.6549 29.8483 49.7213C29.8483 49.7213 29.8769 54.211 29.9212 54.7365ZM47.1663 36.2865L47.3392 35.8668C47.1966 35.6129 47.0825 35.3408 47.0017 35.0549L46.5841 34.881C46.4383 34.8203 46.3433 34.6779 46.3433 34.5199V34.0395V33.5591C46.3433 33.4012 46.4383 33.2588 46.5841 33.1981L47.0017 33.0241C47.0824 32.7382 47.1965 32.4661 47.3392 32.2123L47.1662 31.7926C47.1061 31.6466 47.1396 31.4787 47.2513 31.367L47.591 31.0273L47.9307 30.6876C48.0424 30.5759 48.2102 30.5423 48.3563 30.6026L48.776 30.7755C49.0299 30.6328 49.302 30.5187 49.5879 30.438L49.7619 30.0203C49.8225 29.8745 49.965 29.7795 50.1229 29.7795H50.6033H51.0837C51.2417 29.7795 51.3841 29.8745 51.4448 30.0203L51.6187 30.438C51.9047 30.5187 52.1767 30.6328 52.4307 30.7755L52.8504 30.6026C52.9964 30.5424 53.1643 30.5759 53.276 30.6876L53.6157 31.0273L53.9554 31.367C54.0671 31.4787 54.1006 31.6466 54.0404 31.7926L53.8675 32.2123C54.0102 32.4662 54.1243 32.7382 54.205 33.0241L54.6226 33.1981C54.7684 33.2587 54.8633 33.4012 54.8633 33.5591V34.0395V34.5199C54.8633 34.6778 54.7683 34.8203 54.6226 34.881L54.205 35.0549C54.1243 35.3409 54.0102 35.6129 53.8674 35.8668L54.0404 36.2865C54.1005 36.4325 54.067 36.6004 53.9553 36.7121L53.6156 37.0518L53.2759 37.3914C53.1642 37.5031 52.9964 37.5367 52.8503 37.4765L52.4306 37.3035C52.1767 37.4462 51.9046 37.5603 51.6187 37.641L51.4448 38.0586C51.3841 38.2044 51.2416 38.2994 51.0837 38.2994H50.6033H50.1229C49.9649 38.2994 49.8225 38.2044 49.7618 38.0586L49.5879 37.6411C49.3019 37.5604 49.0299 37.4463 48.776 37.3035L48.3562 37.4765C48.2102 37.5366 48.0423 37.5031 47.9306 37.3914L47.5909 37.0518L47.2512 36.7121C47.1397 36.6004 47.1061 36.4325 47.1663 36.2865ZM35.3802 39.4716C35.3802 39.2551 35.5104 39.0598 35.7103 38.9766L36.2828 38.7382C36.3935 38.3462 36.5499 37.9732 36.7456 37.6251L36.5085 37.0497C36.4259 36.8494 36.472 36.6192 36.6251 36.4662L37.0908 36.0005L37.5565 35.5348C37.7096 35.3817 37.9397 35.3356 38.14 35.4181L38.7154 35.6553C39.0635 35.4596 39.4365 35.3032 39.8285 35.1925L40.0669 34.62C40.1501 34.4201 40.3454 34.2899 40.5619 34.2899H41.2205H41.8792C42.0957 34.2899 42.291 34.4201 42.3742 34.62L42.6126 35.1925C43.0047 35.3032 43.3776 35.4596 43.7257 35.6553L44.3012 35.4181C44.5014 35.3356 44.7316 35.3817 44.8847 35.5348L45.3504 36.0005L45.8161 36.4662C45.9692 36.6193 46.0152 36.8495 45.9327 37.0497L45.6956 37.6251C45.8913 37.9732 46.0477 38.3461 46.1583 38.7382L46.7309 38.9766C46.9308 39.0598 47.061 39.2551 47.061 39.4716V40.1302V40.7889C47.061 41.0054 46.9307 41.2007 46.7309 41.2839L46.1583 41.5223C46.0477 41.9143 45.8913 42.2873 45.6956 42.6354L45.9327 43.2108C46.0152 43.411 45.9692 43.6412 45.8161 43.7943L45.3504 44.26L44.8847 44.7257C44.7316 44.8788 44.5014 44.9248 44.3013 44.8423L43.7258 44.6052C43.3777 44.8008 43.0048 44.9572 42.6127 45.0679L42.3743 45.6405C42.2911 45.8404 42.0958 45.9706 41.8792 45.9706H41.2206H40.5621C40.3455 45.9706 40.1502 45.8404 40.067 45.6405L39.8287 45.068C39.4366 44.9573 39.0636 44.8009 38.7155 44.6052L38.1401 44.8424C37.9399 44.9249 37.7097 44.8788 37.5566 44.7257L37.0909 44.2601L36.6252 43.7944C36.4721 43.6413 36.4261 43.4111 36.5086 43.2109L36.7457 42.6355C36.5501 42.2874 36.3937 41.9144 36.283 41.5223L35.7105 41.284C35.5106 41.2008 35.3804 41.0055 35.3804 40.7889V40.1303L35.3802 39.4716Z" fill="url(#paint4_linear)"/>
<path d="M50.6018 31.8164C51.8275 31.8164 52.8247 32.8136 52.8247 34.0393C52.8247 35.265 51.8275 36.2622 50.6018 36.2622C49.3761 36.2622 48.3789 35.265 48.3789 34.0393C48.3789 32.8136 49.3761 31.8164 50.6018 31.8164Z" fill="url(#paint5_linear)"/>
<defs>
<filter id="filter0_d" x="5" y="8" width="78" height="78" filterUnits="userSpaceOnUse" color-interpolation-filters="sRGB">
<feFlood flood-opacity="0" result="BackgroundImageFix"/>
<feColorMatrix in="SourceAlpha" type="matrix" values="0 0 0 0 0 0 0 0 0 0 0 0 0 0 0 0 0 0 127 0"/>
<feOffset dy="3"/>
<feGaussianBlur stdDeviation="2.5"/>
<feColorMatrix type="matrix" values="0 0 0 0 0 0 0 0 0 0.670833 0 0 0 0 0.557921 0 0 0 0.3 0"/>
<feBlend mode="multiply" in2="BackgroundImageFix" result="effect1_dropShadow"/>
<feBlend mode="normal" in="SourceGraphic" in2="effect1_dropShadow" result="shape"/>
</filter>
<linearGradient id="paint0_linear" x1="44" y1="0" x2="44" y2="88" gradientUnits="userSpaceOnUse">
<stop stop-color="#00D1B3"/>
<stop offset="1" stop-color="#00AB8E"/>
</linearGradient>
<linearGradient id="paint1_linear" x1="44" y1="13" x2="44" y2="75" gradientUnits="userSpaceOnUse">
<stop stop-color="#00D1B3"/>
<stop offset="1" stop-color="#00AB8E"/>
</linearGradient>
<linearGradient id="paint2_linear" x1="44" y1="13" x2="44" y2="75" gradientUnits="userSpaceOnUse">
<stop stop-color="white"/>
<stop offset="1" stop-color="#ECF7FA"/>
</linearGradient>
<linearGradient id="paint3_linear" x1="41.2195" y1="37.083" x2="41.2195" y2="43.1782" gradientUnits="userSpaceOnUse">
<stop stop-color="white"/>
<stop offset="1" stop-color="#ECF7FA"/>
</linearGradient>
<linearGradient id="paint4_linear" x1="43.5502" y1="26" x2="43.5502" y2="61" gradientUnits="userSpaceOnUse">
<stop stop-color="white"/>
<stop offset="1" stop-color="#ECF7FA"/>
</linearGradient>
<linearGradient id="paint5_linear" x1="50.6018" y1="31.8164" x2="50.6018" y2="36.2622" gradientUnits="userSpaceOnUse">
<stop stop-color="white"/>
<stop offset="1" stop-color="#ECF7FA"/>
</linearGradient>
</defs>
</svg>
