<svg width="108" height="108" viewBox="0 0 108 108" fill="none" xmlns="http://www.w3.org/2000/svg">
<g filter="url(#filter0_f)">
<path d="M97 54C97 30.2518 77.7482 11 54 11C30.2518 11 11 30.2518 11 54C11 77.7482 30.2518 97 54 97C77.7482 97 97 77.7482 97 54Z" stroke="url(#paint0_linear)" stroke-width="2"/>
</g>
<path d="M97 54C97 30.2518 77.7482 11 54 11C30.2518 11 11 30.2518 11 54C11 77.7482 30.2518 97 54 97C77.7482 97 97 77.7482 97 54Z" stroke="url(#paint1_linear)" stroke-width="2"/>
<g opacity="0.5" filter="url(#filter1_f)">
<path opacity="0.5" d="M84.7992 54.0002C84.7992 36.9898 71.0096 23.2002 53.9992 23.2002C36.9888 23.2002 23.1992 36.9898 23.1992 54.0002C23.1992 71.0106 36.9888 84.8002 53.9992 84.8002C71.0096 84.8002 84.7992 71.0106 84.7992 54.0002Z" fill="url(#paint2_linear)"/>
</g>
<path d="M86.108 53.9998C86.108 36.2667 71.7325 21.8911 53.9993 21.8911C36.2662 21.8911 21.8906 36.2667 21.8906 53.9998C21.8906 71.733 36.2662 86.1085 53.9993 86.1085C71.7325 86.1085 86.108 71.733 86.108 53.9998Z" fill="url(#paint3_linear)" stroke="url(#paint4_linear)" stroke-width="3"/>
<path d="M71.9998 45.004L71.994 43.8647H64.2077V51.0669C64.2077 51.8778 64.0916 52.6716 63.873 53.4291C66.0232 53.3637 68.0332 52.4938 69.5574 50.9621C71.1434 49.3684 72.0108 47.2525 71.9998 45.004Z" fill="url(#paint5_linear)"/>
<path d="M50.5981 66.2753C52.2714 66.2753 53.6327 64.914 53.6327 63.2408V61.9219L45.7129 66.2753H50.5981Z" fill="url(#paint6_linear)"/>
<path d="M44.6694 43.7121C43.1915 44.2547 41.8565 45.0781 40.7017 46.1596C39.5469 47.2411 38.6376 48.5191 37.9991 49.9583C37.3362 51.4527 37 53.0472 37 54.6972V61.1752C37 62.7866 37.828 64.2382 39.2149 65.0585C39.9294 65.481 40.7191 65.6929 41.5103 65.6929C42.2546 65.6929 43.0003 65.5052 43.6849 65.1288L58.8366 56.8001C60.9279 55.6504 62.2271 53.4537 62.2271 51.0672V43.865L49.4637 43.0259C47.8169 42.9177 46.2042 43.1486 44.6694 43.7121Z" fill="url(#paint7_linear)"/>
<defs>
<filter id="filter0_f" x="0" y="0" width="108" height="108" filterUnits="userSpaceOnUse" color-interpolation-filters="sRGB">
<feFlood flood-opacity="0" result="BackgroundImageFix"/>
<feBlend mode="normal" in="SourceGraphic" in2="BackgroundImageFix" result="shape"/>
<feGaussianBlur stdDeviation="5" result="effect1_foregroundBlur"/>
</filter>
<filter id="filter1_f" x="13.1992" y="13.2002" width="81.6" height="81.6" filterUnits="userSpaceOnUse" color-interpolation-filters="sRGB">
<feFlood flood-opacity="0" result="BackgroundImageFix"/>
<feBlend mode="normal" in="SourceGraphic" in2="BackgroundImageFix" result="shape"/>
<feGaussianBlur stdDeviation="5" result="effect1_foregroundBlur"/>
</filter>
<linearGradient id="paint0_linear" x1="54" y1="10" x2="54" y2="98" gradientUnits="userSpaceOnUse">
<stop stop-color="#00D1B3"/>
<stop offset="1" stop-color="#00AB8E"/>
</linearGradient>
<linearGradient id="paint1_linear" x1="54" y1="10" x2="54" y2="98" gradientUnits="userSpaceOnUse">
<stop stop-color="#00D1B3"/>
<stop offset="1" stop-color="#00AB8E"/>
</linearGradient>
<linearGradient id="paint2_linear" x1="53.9992" y1="23.2002" x2="53.9992" y2="84.8002" gradientUnits="userSpaceOnUse">
<stop stop-color="#00D1B3"/>
<stop offset="1" stop-color="#00AB8E"/>
</linearGradient>
<linearGradient id="paint3_linear" x1="53.9993" y1="23.3911" x2="53.9993" y2="84.6085" gradientUnits="userSpaceOnUse">
<stop stop-color="#00D1B3"/>
<stop offset="1" stop-color="#00AB8E"/>
</linearGradient>
<linearGradient id="paint4_linear" x1="53.9993" y1="23.3911" x2="53.9993" y2="84.6085" gradientUnits="userSpaceOnUse">
<stop stop-color="white"/>
<stop offset="1" stop-color="#ECF7FA"/>
</linearGradient>
<linearGradient id="paint5_linear" x1="67.9365" y1="43.8647" x2="67.9365" y2="53.4291" gradientUnits="userSpaceOnUse">
<stop stop-color="white"/>
<stop offset="1" stop-color="#ECF7FA"/>
</linearGradient>
<linearGradient id="paint6_linear" x1="49.6728" y1="61.9219" x2="49.6728" y2="66.2753" gradientUnits="userSpaceOnUse">
<stop stop-color="white"/>
<stop offset="1" stop-color="#ECF7FA"/>
</linearGradient>
<linearGradient id="paint7_linear" x1="49.6136" y1="43" x2="49.6136" y2="65.6929" gradientUnits="userSpaceOnUse">
<stop stop-color="white"/>
<stop offset="1" stop-color="#ECF7FA"/>
</linearGradient>
</defs>
</svg>
