<svg width="152" height="152" viewBox="0 0 152 152" fill="none" xmlns="http://www.w3.org/2000/svg">
<rect x="32" y="7" width="88" height="88" rx="44" fill="url(#paint0_linear)"/>
<g opacity="0.5" filter="url(#filter0_f)">
<rect x="45.1992" y="20.2002" width="61.6" height="61.6" rx="30.8" fill="url(#paint1_linear)"/>
</g>
<g filter="url(#filter1_d)">
<rect x="45.3906" y="20.3911" width="61.2174" height="61.2174" rx="30.6087" fill="url(#paint2_linear)"/>
</g>
<path d="M76.415 43.8066C72.4168 43.8066 69.1641 47.0594 69.1641 51.0576C69.1641 55.0558 72.4168 58.3085 76.415 58.3085C80.4131 58.3085 83.666 55.0558 83.666 51.0576C83.666 47.0594 80.4131 43.8066 76.415 43.8066ZM80.929 52.0816H77.439V55.5716H75.391V52.0816H71.901V50.0335H75.391V46.5436H77.439V50.0335H80.929V52.0816Z" fill="url(#paint3_linear)"/>
<path d="M90.8503 40.52C88.4188 40.4263 86.4902 38.4458 86.4597 36.0112L86.447 35H66.3878L66.3752 36.0112C66.3447 38.4458 64.4161 40.4263 61.9846 40.52L61 40.5579V48.8052C61 56.2554 64.8629 63.1677 71.0812 66.8447L76.4175 70L81.7537 66.8447C87.9721 63.1678 91.835 56.2554 91.835 48.8052V40.5579L90.8503 40.52ZM76.4175 60.3568C71.29 60.3568 67.1184 56.1852 67.1184 51.0577C67.1184 45.9302 71.2899 41.7587 76.4175 41.7587C81.5449 41.7587 85.7165 45.9302 85.7165 51.0577C85.7165 56.1852 81.5449 60.3568 76.4175 60.3568Z" fill="url(#paint4_linear)"/>
<defs>
<filter id="filter0_f" x="35.1992" y="10.2002" width="81.6" height="81.6" filterUnits="userSpaceOnUse" color-interpolation-filters="sRGB">
<feFlood flood-opacity="0" result="BackgroundImageFix"/>
<feBlend mode="normal" in="SourceGraphic" in2="BackgroundImageFix" result="shape"/>
<feGaussianBlur stdDeviation="5" result="effect1_foregroundBlur"/>
</filter>
<filter id="filter1_d" x="0.390625" y="0.391113" width="151.217" height="151.217" filterUnits="userSpaceOnUse" color-interpolation-filters="sRGB">
<feFlood flood-opacity="0" result="BackgroundImageFix"/>
<feColorMatrix in="SourceAlpha" type="matrix" values="0 0 0 0 0 0 0 0 0 0 0 0 0 0 0 0 0 0 127 0"/>
<feOffset dy="25"/>
<feGaussianBlur stdDeviation="22.5"/>
<feColorMatrix type="matrix" values="0 0 0 0 0.867118 0 0 0 0 0.908897 0 0 0 0 0.920833 0 0 0 1 0"/>
<feBlend mode="multiply" in2="BackgroundImageFix" result="effect1_dropShadow"/>
<feBlend mode="normal" in="SourceGraphic" in2="effect1_dropShadow" result="shape"/>
</filter>
<linearGradient id="paint0_linear" x1="76" y1="7" x2="76" y2="95" gradientUnits="userSpaceOnUse">
<stop stop-color="#00D1B3"/>
<stop offset="1" stop-color="#00AB8E"/>
</linearGradient>
<linearGradient id="paint1_linear" x1="75.9992" y1="20.2002" x2="75.9992" y2="81.8002" gradientUnits="userSpaceOnUse">
<stop stop-color="#00D1B3"/>
<stop offset="1" stop-color="#00AB8E"/>
</linearGradient>
<linearGradient id="paint2_linear" x1="75.9993" y1="20.3911" x2="75.9993" y2="81.6085" gradientUnits="userSpaceOnUse">
<stop stop-color="#D9FCF8"/>
<stop offset="1" stop-color="white"/>
</linearGradient>
<linearGradient id="paint3_linear" x1="76.415" y1="43.8066" x2="76.415" y2="58.3085" gradientUnits="userSpaceOnUse">
<stop stop-color="#00D1B3"/>
<stop offset="1" stop-color="#00AB8E"/>
</linearGradient>
<linearGradient id="paint4_linear" x1="76.4175" y1="35" x2="76.4175" y2="70" gradientUnits="userSpaceOnUse">
<stop stop-color="#00D1B3"/>
<stop offset="1" stop-color="#00AB8E"/>
</linearGradient>
</defs>
</svg>
