<svg width="150" height="157" viewBox="0 0 150 157" fill="none" xmlns="http://www.w3.org/2000/svg">
<g filter="url(#filter0_d)">
<circle cx="75.0016" cy="56.9999" r="41.7106" fill="url(#paint0_linear)"/>
<g filter="url(#filter1_d)">
<ellipse cx="74.9995" cy="57" rx="29.6206" ry="29.6206" fill="url(#paint1_linear)"/>
</g>
</g>
<path d="M85.4629 52.2207C85.4554 52.1961 85.4485 52.1715 85.441 52.1469H85.4403C85.199 51.3655 84.8805 50.6184 84.4936 49.9143C84.1066 49.2102 83.6514 48.5491 83.1359 47.9394C82.034 46.4088 87.7974 41.8841 85.9079 39.9946C84.0533 38.1394 79.5218 44.7039 77.5824 44.2322C76.9282 44.0251 76.2487 43.8727 75.5515 43.7797C73.6258 43.3606 73.8753 39 72.2846 39C70.7198 39 70.7301 43.9437 69.5304 44.5125C69.5099 44.5207 69.49 44.5296 69.4695 44.5378C69.4429 44.5467 69.4183 44.5569 69.3943 44.5686C67.5999 45.3041 66.0229 46.4607 64.7862 47.9154C62.745 49.9573 58.7111 47.0049 57.2284 48.4876C55.7464 49.9696 61.9609 53.2201 61.9609 54.8108C61.9589 54.8396 61.9575 54.8676 61.9555 54.8956C61.7846 56.3441 57.1696 54.8478 57.1696 56.8001C57.1696 58.7442 61.8734 57.7188 62.4661 59.2604C62.4764 59.2938 62.4873 59.3273 62.4982 59.3608C62.4989 59.3636 62.4996 59.3663 62.501 59.369C62.5229 59.4613 62.5523 59.5461 62.5864 59.6254C63.3076 61.7117 64.5859 63.5369 66.2443 64.9232C68.3799 67.0588 64.0131 69.5464 66.1015 70.6401C68.1147 71.6949 68.6431 67.0772 71.1505 67.3903C72.0494 67.6043 72.9866 67.7185 73.9512 67.7185C77.793 67.7185 81.2137 65.9165 83.4142 63.1117C85.1772 61.3494 87.2006 64.0592 87.8609 62.4042C88.5015 60.8005 85.452 59.8578 85.6898 58.3013C85.7008 58.2514 85.7117 58.2015 85.722 58.1516C86.1896 56.5048 91.4765 56.5014 91.4765 55.0098C91.4765 53.5421 85.9893 53.6952 85.4629 52.2207ZM80.2006 52.0792C80.1575 52.3342 79.9313 52.527 79.6722 52.527C79.1916 52.527 78.953 51.9097 79.3174 51.5897C79.4801 51.4469 79.7193 51.4154 79.9128 51.5125C80.1199 51.6164 80.2396 51.8502 80.2006 52.0792ZM74.6669 52.2822C74.6669 53.6515 73.5567 54.7616 72.1875 54.7616C70.8183 54.7616 69.7081 53.6515 69.7081 52.2822C69.7081 50.913 70.8183 49.8028 72.1875 49.8028C73.5567 49.8028 74.6669 50.913 74.6669 52.2822ZM68.4223 57.3627C68.5809 57.2232 68.8147 57.1897 69.0061 57.28C69.2166 57.3798 69.3424 57.6122 69.3068 57.8433C69.2672 58.1023 69.0402 58.3006 68.7771 58.3006C68.2958 58.3006 68.0593 57.6826 68.4223 57.3627ZM72.6414 63.0728C71.8703 63.0728 71.2448 62.4473 71.2448 61.6755C71.2448 60.9044 71.8703 60.2789 72.6414 60.2789C73.4132 60.2789 74.0387 60.9044 74.0387 61.6755C74.0387 62.4473 73.4132 63.0728 72.6414 63.0728Z" fill="url(#paint2_linear)"/>
<path d="M90.7152 65.2321C90.0849 64.6018 88.4299 67.3499 87.248 67.3499C86.5076 67.3499 85.8241 67.5919 85.2717 68.0007C85.2485 68.015 85.2266 68.0307 85.2068 68.0506C85.1863 68.0663 85.1658 68.082 85.1459 68.0984C84.5444 68.4833 82.6207 67.3485 82.1573 68.1162C81.6767 68.9119 83.923 69.8819 83.923 70.6749C83.923 72.511 85.4112 73.9999 87.248 73.9999C89.0841 73.9999 90.573 72.511 90.573 70.6749C90.573 70.2791 90.5039 69.9004 90.3768 69.5483C89.9017 68.3958 91.3461 65.8624 90.7152 65.2321ZM86.5945 70.1567C86.5569 70.4165 86.3258 70.614 86.0647 70.614C85.5964 70.614 85.3572 70.0296 85.6853 69.6994C85.848 69.5367 86.1002 69.4991 86.3053 69.5996C86.5104 69.7008 86.6273 69.9318 86.5945 70.1567ZM88.8414 71.5793C88.7854 71.8192 88.5666 71.9942 88.3199 71.9942C87.8325 71.9942 87.6 71.3667 87.9712 71.0509C88.149 70.8998 88.4094 70.882 88.6056 71.0057C88.7963 71.1261 88.8927 71.3598 88.8414 71.5793Z" fill="url(#paint3_linear)"/>
<defs>
<filter id="filter0_d" x="6" y="-2" width="138" height="138" filterUnits="userSpaceOnUse" color-interpolation-filters="sRGB">
<feFlood flood-opacity="0" result="BackgroundImageFix"/>
<feColorMatrix in="SourceAlpha" type="matrix" values="0 0 0 0 0 0 0 0 0 0 0 0 0 0 0 0 0 0 127 0"/>
<feOffset dy="10"/>
<feGaussianBlur stdDeviation="12.5"/>
<feColorMatrix type="matrix" values="0 0 0 0 0.867118 0 0 0 0 0.908897 0 0 0 0 0.920833 0 0 0 1 0"/>
<feBlend mode="multiply" in2="BackgroundImageFix" result="effect1_dropShadow"/>
<feBlend mode="normal" in="SourceGraphic" in2="effect1_dropShadow" result="shape"/>
</filter>
<filter id="filter1_d" x="0.378906" y="7.37939" width="149.241" height="149.241" filterUnits="userSpaceOnUse" color-interpolation-filters="sRGB">
<feFlood flood-opacity="0" result="BackgroundImageFix"/>
<feColorMatrix in="SourceAlpha" type="matrix" values="0 0 0 0 0 0 0 0 0 0 0 0 0 0 0 0 0 0 127 0"/>
<feOffset dy="25"/>
<feGaussianBlur stdDeviation="22.5"/>
<feColorMatrix type="matrix" values="0 0 0 0 0.867118 0 0 0 0 0.908897 0 0 0 0 0.920833 0 0 0 1 0"/>
<feBlend mode="multiply" in2="BackgroundImageFix" result="effect1_dropShadow"/>
<feBlend mode="normal" in="SourceGraphic" in2="effect1_dropShadow" result="shape"/>
</filter>
<linearGradient id="paint0_linear" x1="75.0016" y1="15.2893" x2="75.0016" y2="98.7105" gradientUnits="userSpaceOnUse">
<stop stop-color="#00D1B3"/>
<stop offset="1" stop-color="#00AB8E"/>
</linearGradient>
<linearGradient id="paint1_linear" x1="74.9995" y1="27.3794" x2="74.9995" y2="86.6205" gradientUnits="userSpaceOnUse">
<stop stop-color="#D9FCF8"/>
<stop offset="1" stop-color="white"/>
</linearGradient>
<linearGradient id="paint2_linear" x1="74.2382" y1="39" x2="74.2382" y2="70.7971" gradientUnits="userSpaceOnUse">
<stop stop-color="#00D1B3"/>
<stop offset="1" stop-color="#00AB8E"/>
</linearGradient>
<linearGradient id="paint3_linear" x1="86.4837" y1="65.1382" x2="86.4837" y2="73.9999" gradientUnits="userSpaceOnUse">
<stop stop-color="#00D1B3"/>
<stop offset="1" stop-color="#00AB8E"/>
</linearGradient>
</defs>
</svg>
