<svg width="150" height="157" viewBox="0 0 150 157" fill="none" xmlns="http://www.w3.org/2000/svg">
<g filter="url(#filter0_d)">
<circle cx="75.0016" cy="56.9999" r="41.7106" fill="url(#paint0_linear)"/>
<g filter="url(#filter1_d)">
<ellipse cx="74.9995" cy="57" rx="29.6206" ry="29.6206" fill="url(#paint1_linear)"/>
</g>
</g>
<path d="M65.9297 61.9434C66.496 61.9434 66.9551 61.4843 66.9551 60.918C66.9551 60.3517 66.496 59.8926 65.9297 59.8926C65.3634 59.8926 64.9043 60.3517 64.9043 60.918C64.9043 61.4843 65.3634 61.9434 65.9297 61.9434Z" fill="url(#paint2_linear)"/>
<path d="M66.5714 52.7561C66.9711 53.1559 67.6217 53.1559 68.0215 52.7561L70.9218 49.8559C71.1154 49.6622 71.2221 49.4047 71.2221 49.1309C71.2221 48.857 71.1154 48.5995 70.9218 48.4058C70.5219 48.0061 69.8715 48.0059 69.4716 48.4058L66.5714 51.306C66.1715 51.7058 66.1715 52.3563 66.5714 52.7561V52.7561Z" fill="url(#paint3_linear)"/>
<path d="M82.3359 64.0364C83.2798 64.0364 84.0449 63.2712 84.0449 62.3274C84.0449 61.3835 83.2798 60.6184 82.3359 60.6184C81.3921 60.6184 80.627 61.3835 80.627 62.3274C80.627 63.2712 81.3921 64.0364 82.3359 64.0364Z" fill="url(#paint4_linear)"/>
<path d="M87.8744 45.1256C84.569 41.8203 80.1744 40 75.5 40C70.8256 40 66.431 41.8203 63.1256 45.1256C59.8203 48.431 58 52.8256 58 57.5C58 62.1744 59.8203 66.569 63.1256 69.8744C66.431 73.1797 70.8256 75 75.5 75C80.1744 75 84.569 73.1797 87.8744 69.8744C91.1797 66.569 93 62.1744 93 57.5C93 52.8256 91.1797 48.431 87.8744 45.1256V45.1256ZM65.1217 49.8561L68.022 46.9558C69.2213 45.7565 71.1729 45.7564 72.3724 46.9558C72.9534 47.5368 73.2734 48.3094 73.2734 49.131C73.2734 49.9527 72.9533 50.7252 72.3724 51.3062L69.4721 54.2064C68.8724 54.8061 68.0846 55.106 67.2969 55.106C66.5092 55.106 65.7215 54.8062 65.1218 54.2065C63.9223 53.007 63.9223 51.0555 65.1217 49.8561V49.8561ZM73.4492 59.209C73.4492 59.7753 72.9901 60.2344 72.4238 60.2344C71.8575 60.2344 71.3984 59.7753 71.3984 59.209C71.3984 58.6427 71.8575 58.1836 72.4238 58.1836C72.9901 58.1836 73.4492 58.6427 73.4492 59.209ZM65.9297 63.9941C64.2335 63.9941 62.8535 62.6142 62.8535 60.918C62.8535 59.2218 64.2335 57.8418 65.9297 57.8418C67.6259 57.8418 69.0059 59.2218 69.0059 60.918C69.0059 62.6142 67.6259 63.9941 65.9297 63.9941ZM73.8982 66.0449C73.3975 66.0449 72.9901 66.4523 72.9901 66.953C72.9901 68.5845 71.6628 69.9119 70.0312 69.9119C69.465 69.9119 69.0059 69.4528 69.0059 68.8865C69.0059 68.3202 69.465 67.8611 70.0312 67.8611C70.532 67.8611 70.9393 67.4537 70.9393 66.953C70.9393 65.3215 72.2667 63.9941 73.8982 63.9941C74.4645 63.9941 74.9236 64.4532 74.9236 65.0195C74.9236 65.5858 74.4646 66.0449 73.8982 66.0449ZM77.8926 45.8789C78.4589 45.8789 78.918 46.338 78.918 46.9043C78.918 47.4706 78.4589 47.9297 77.8926 47.9297C77.3263 47.9297 76.8672 47.4706 76.8672 46.9043C76.8672 46.338 77.3263 45.8789 77.8926 45.8789ZM77.8926 52.0312C78.4589 52.0312 78.918 52.4904 78.918 53.0566C78.918 53.6229 78.4589 54.082 77.8926 54.082C77.3263 54.082 76.8672 53.6229 76.8672 53.0566C76.8672 52.4904 77.3263 52.0312 77.8926 52.0312ZM87.1211 63.3529H85.9524C85.7801 63.9598 85.4592 64.5044 85.0312 64.9451L85.6166 65.9589C85.8998 66.4493 85.7318 67.0765 85.2413 67.3596C85.0798 67.4529 84.9035 67.4971 84.7295 67.4971C84.3752 67.4971 84.0305 67.3133 83.8406 66.9843L83.2567 65.9729C82.9619 66.0473 82.6536 66.0873 82.336 66.0873C82.0184 66.0873 81.7101 66.0473 81.4153 65.9729L80.8314 66.9843C80.6415 67.3133 80.2968 67.4971 79.9425 67.4971C79.7685 67.4971 79.5922 67.4529 79.4307 67.3596C78.9403 67.0765 78.7722 66.4493 79.0554 65.9589L79.6408 64.9451C79.2128 64.5044 78.8919 63.9598 78.7196 63.3529H77.5508C76.9845 63.3529 76.5254 62.8938 76.5254 62.3275C76.5254 61.7612 76.9845 61.3021 77.5508 61.3021H78.7195C78.8918 60.6953 79.2127 60.1506 79.6407 59.71L79.0553 58.6962C78.7721 58.2057 78.9401 57.5786 79.4306 57.2955C79.921 57.0123 80.5482 57.1803 80.8313 57.6708L81.4152 58.6822C81.71 58.6078 82.0183 58.5678 82.3358 58.5678C82.6533 58.5678 82.9617 58.6078 83.2564 58.6822L83.8403 57.6708C84.1235 57.1803 84.7505 57.0122 85.241 57.2955C85.7315 57.5786 85.8995 58.2057 85.6163 58.6962L85.0309 59.71C85.4589 60.1506 85.7798 60.6953 85.9521 61.3021H87.1211C87.6874 61.3021 88.1465 61.7612 88.1465 62.3275C88.1465 62.8938 87.6874 63.3529 87.1211 63.3529V63.3529ZM87.8047 55.791C87.2384 55.791 86.7793 55.3319 86.7793 54.7656C86.7793 53.9984 86.155 53.3742 85.3878 53.3742C83.4898 53.3742 81.9456 51.83 81.9456 49.9319C81.9456 49.3656 82.4047 48.9065 82.971 48.9065C83.5373 48.9065 83.9964 49.3656 83.9964 49.9319C83.9964 50.6992 84.6206 51.3234 85.3878 51.3234C87.2858 51.3234 88.8301 52.8676 88.8301 54.7656C88.8301 55.3319 88.371 55.791 87.8047 55.791Z" fill="url(#paint5_linear)"/>
<defs>
<filter id="filter0_d" x="6" y="-2" width="138" height="138" filterUnits="userSpaceOnUse" color-interpolation-filters="sRGB">
<feFlood flood-opacity="0" result="BackgroundImageFix"/>
<feColorMatrix in="SourceAlpha" type="matrix" values="0 0 0 0 0 0 0 0 0 0 0 0 0 0 0 0 0 0 127 0"/>
<feOffset dy="10"/>
<feGaussianBlur stdDeviation="12.5"/>
<feColorMatrix type="matrix" values="0 0 0 0 0.867118 0 0 0 0 0.908897 0 0 0 0 0.920833 0 0 0 1 0"/>
<feBlend mode="multiply" in2="BackgroundImageFix" result="effect1_dropShadow"/>
<feBlend mode="normal" in="SourceGraphic" in2="effect1_dropShadow" result="shape"/>
</filter>
<filter id="filter1_d" x="0.378906" y="7.37939" width="149.241" height="149.241" filterUnits="userSpaceOnUse" color-interpolation-filters="sRGB">
<feFlood flood-opacity="0" result="BackgroundImageFix"/>
<feColorMatrix in="SourceAlpha" type="matrix" values="0 0 0 0 0 0 0 0 0 0 0 0 0 0 0 0 0 0 127 0"/>
<feOffset dy="25"/>
<feGaussianBlur stdDeviation="22.5"/>
<feColorMatrix type="matrix" values="0 0 0 0 0.867118 0 0 0 0 0.908897 0 0 0 0 0.920833 0 0 0 1 0"/>
<feBlend mode="multiply" in2="BackgroundImageFix" result="effect1_dropShadow"/>
<feBlend mode="normal" in="SourceGraphic" in2="effect1_dropShadow" result="shape"/>
</filter>
<linearGradient id="paint0_linear" x1="75.0016" y1="15.2893" x2="75.0016" y2="98.7105" gradientUnits="userSpaceOnUse">
<stop stop-color="#00D1B3"/>
<stop offset="1" stop-color="#00AB8E"/>
</linearGradient>
<linearGradient id="paint1_linear" x1="74.9995" y1="27.3794" x2="74.9995" y2="86.6205" gradientUnits="userSpaceOnUse">
<stop stop-color="#D9FCF8"/>
<stop offset="1" stop-color="white"/>
</linearGradient>
<linearGradient id="paint2_linear" x1="65.9297" y1="59.8926" x2="65.9297" y2="61.9434" gradientUnits="userSpaceOnUse">
<stop stop-color="#00D1B3"/>
<stop offset="1" stop-color="#00AB8E"/>
</linearGradient>
<linearGradient id="paint3_linear" x1="68.7468" y1="48.106" x2="68.7468" y2="53.056" gradientUnits="userSpaceOnUse">
<stop stop-color="#00D1B3"/>
<stop offset="1" stop-color="#00AB8E"/>
</linearGradient>
<linearGradient id="paint4_linear" x1="82.3359" y1="60.6184" x2="82.3359" y2="64.0364" gradientUnits="userSpaceOnUse">
<stop stop-color="#00D1B3"/>
<stop offset="1" stop-color="#00AB8E"/>
</linearGradient>
<linearGradient id="paint5_linear" x1="75.5" y1="40" x2="75.5" y2="75" gradientUnits="userSpaceOnUse">
<stop stop-color="#00D1B3"/>
<stop offset="1" stop-color="#00AB8E"/>
</linearGradient>
</defs>
</svg>
