<svg width="150" height="157" viewBox="0 0 150 157" fill="none" xmlns="http://www.w3.org/2000/svg">
<g filter="url(#filter0_d)">
<circle cx="75.0016" cy="56.9999" r="41.7106" fill="url(#paint0_linear)"/>
<g filter="url(#filter1_d)">
<ellipse cx="74.9995" cy="57" rx="29.6206" ry="29.6206" fill="url(#paint1_linear)"/>
</g>
</g>
<path fill-rule="evenodd" clip-rule="evenodd" d="M90.9324 52.5528C90.7162 53.0961 90.8807 53.7069 91.3384 54.0691C92.3499 54.8697 93 56.1087 93 57.5C93 58.8912 92.3499 60.1303 91.3384 60.9309C90.8807 61.2931 90.7171 61.9039 90.9324 62.4473C91.4084 63.6478 91.3515 65.0451 90.6559 66.25C89.9602 67.4549 88.7781 68.203 87.5006 68.3902C86.9222 68.4751 86.4751 68.9222 86.3902 69.5006C86.203 70.7781 85.4549 71.9602 84.25 72.6559C83.0451 73.3515 81.6469 73.4084 80.4473 72.9324C79.9039 72.7162 79.2931 72.8807 78.9309 73.3384C78.1303 74.3499 76.8912 75 75.5 75C74.1087 75 72.8698 74.3499 72.07 73.3384C71.7078 72.8807 71.097 72.7171 70.5536 72.9324C69.3531 73.4084 67.9558 73.3515 66.7509 72.6559C65.546 71.9602 64.7979 70.7781 64.6106 69.5006C64.5258 68.9222 64.0786 68.4751 63.5002 68.3902C62.2227 68.203 61.0406 67.4549 60.345 66.25C59.6494 65.0451 59.5925 63.6469 60.0685 62.4473C60.2846 61.9039 60.121 61.2931 59.6625 60.9309C58.6501 60.1303 58 58.8912 58 57.5C58 56.1087 58.6501 54.8697 59.6616 54.0691C60.1193 53.7069 60.2829 53.0961 60.0676 52.5528C59.5916 51.3523 59.6476 49.9549 60.3441 48.75C61.0406 47.5451 62.2219 46.797 63.4994 46.6097C64.0777 46.5249 64.5249 46.0777 64.6097 45.4994C64.797 44.2219 65.5451 43.0406 66.75 42.345C67.9549 41.6494 69.3531 41.5925 70.5528 42.0685C71.0961 42.2846 71.7069 42.121 72.0691 41.6625C72.8697 40.6501 74.1087 40 75.5 40C76.8912 40 78.1303 40.6501 78.9309 41.6616C79.2931 42.1193 79.9048 42.2829 80.4473 42.0676C81.6478 41.5916 83.0451 41.6485 84.25 42.3441C85.4549 43.0398 86.203 44.2219 86.3902 45.4994C86.4751 46.0777 86.9222 46.5249 87.5006 46.6097C88.7781 46.797 89.9602 47.5451 90.6559 48.75C91.3515 49.9549 91.4084 51.3531 90.9324 52.5528ZM62.8125 57.5C62.8125 64.4956 68.5044 70.1875 75.5 70.1875C82.4956 70.1875 88.1875 64.4956 88.1875 57.5C88.1875 50.5044 82.4956 44.8125 75.5 44.8125C68.5044 44.8125 62.8125 50.5044 62.8125 57.5ZM65.4375 57.5C65.4375 51.9516 69.9516 47.4375 75.5 47.4375C81.0484 47.4375 85.5625 51.9516 85.5625 57.5C85.5625 63.0484 81.0484 67.5625 75.5 67.5625C69.9516 67.5625 65.4375 63.0484 65.4375 57.5ZM70.5388 57.8806L74.3249 61.6291L80.4691 55.4499L78.608 53.5992L74.31 57.9209L72.385 56.0151L70.5388 57.8806Z" fill="url(#paint2_linear)"/>
<defs>
<filter id="filter0_d" x="6" y="-2" width="138" height="138" filterUnits="userSpaceOnUse" color-interpolation-filters="sRGB">
<feFlood flood-opacity="0" result="BackgroundImageFix"/>
<feColorMatrix in="SourceAlpha" type="matrix" values="0 0 0 0 0 0 0 0 0 0 0 0 0 0 0 0 0 0 127 0"/>
<feOffset dy="10"/>
<feGaussianBlur stdDeviation="12.5"/>
<feColorMatrix type="matrix" values="0 0 0 0 0.867118 0 0 0 0 0.908897 0 0 0 0 0.920833 0 0 0 1 0"/>
<feBlend mode="multiply" in2="BackgroundImageFix" result="effect1_dropShadow"/>
<feBlend mode="normal" in="SourceGraphic" in2="effect1_dropShadow" result="shape"/>
</filter>
<filter id="filter1_d" x="0.378906" y="7.37939" width="149.241" height="149.241" filterUnits="userSpaceOnUse" color-interpolation-filters="sRGB">
<feFlood flood-opacity="0" result="BackgroundImageFix"/>
<feColorMatrix in="SourceAlpha" type="matrix" values="0 0 0 0 0 0 0 0 0 0 0 0 0 0 0 0 0 0 127 0"/>
<feOffset dy="25"/>
<feGaussianBlur stdDeviation="22.5"/>
<feColorMatrix type="matrix" values="0 0 0 0 0.867118 0 0 0 0 0.908897 0 0 0 0 0.920833 0 0 0 1 0"/>
<feBlend mode="multiply" in2="BackgroundImageFix" result="effect1_dropShadow"/>
<feBlend mode="normal" in="SourceGraphic" in2="effect1_dropShadow" result="shape"/>
</filter>
<linearGradient id="paint0_linear" x1="75.0016" y1="15.2893" x2="75.0016" y2="98.7105" gradientUnits="userSpaceOnUse">
<stop stop-color="#00D1B3"/>
<stop offset="1" stop-color="#00AB8E"/>
</linearGradient>
<linearGradient id="paint1_linear" x1="74.9995" y1="27.3794" x2="74.9995" y2="86.6205" gradientUnits="userSpaceOnUse">
<stop stop-color="#D9FCF8"/>
<stop offset="1" stop-color="white"/>
</linearGradient>
<linearGradient id="paint2_linear" x1="75.5" y1="40" x2="75.5" y2="75" gradientUnits="userSpaceOnUse">
<stop stop-color="#00D1B3"/>
<stop offset="1" stop-color="#00AB8E"/>
</linearGradient>
</defs>
</svg>
