<svg width="152" height="152" viewBox="0 0 152 152" fill="none" xmlns="http://www.w3.org/2000/svg">
<rect x="32" y="7" width="88" height="88" rx="44" fill="url(#paint0_linear)"/>
<g opacity="0.5" filter="url(#filter0_f)">
<rect x="45.1992" y="20.2002" width="61.6" height="61.6" rx="30.8" fill="url(#paint1_linear)"/>
</g>
<g filter="url(#filter1_d)">
<rect x="45.3906" y="20.3911" width="61.2174" height="61.2174" rx="30.6087" fill="url(#paint2_linear)"/>
</g>
<path d="M93.9998 42.004L93.994 40.8647H86.2077V48.0669C86.2077 48.8778 86.0916 49.6716 85.873 50.4291C88.0232 50.3637 90.0332 49.4938 91.5574 47.9621C93.1434 46.3684 94.0108 44.2525 93.9998 42.004V42.004Z" fill="url(#paint3_linear)"/>
<path d="M72.5981 63.2753C74.2714 63.2753 75.6327 61.914 75.6327 60.2408V58.9219L67.7129 63.2753H72.5981Z" fill="url(#paint4_linear)"/>
<path d="M66.6694 40.7121C65.1915 41.2547 63.8565 42.0781 62.7017 43.1596C61.5469 44.2411 60.6376 45.5191 59.9991 46.9583C59.3362 48.4527 59 50.0472 59 51.6972V58.1752C59 59.7866 59.828 61.2382 61.2149 62.0585C61.9294 62.481 62.7191 62.6929 63.5103 62.6929C64.2546 62.6929 65.0003 62.5052 65.6849 62.1288L80.8366 53.8001C82.9279 52.6504 84.2271 50.4537 84.2271 48.0672V40.865L71.4637 40.0259C69.8169 39.9177 68.2042 40.1486 66.6694 40.7121V40.7121Z" fill="url(#paint5_linear)"/>
<defs>
<filter id="filter0_f" x="35.1992" y="10.2002" width="81.6" height="81.6" filterUnits="userSpaceOnUse" color-interpolation-filters="sRGB">
<feFlood flood-opacity="0" result="BackgroundImageFix"/>
<feBlend mode="normal" in="SourceGraphic" in2="BackgroundImageFix" result="shape"/>
<feGaussianBlur stdDeviation="5" result="effect1_foregroundBlur"/>
</filter>
<filter id="filter1_d" x="0.390625" y="0.391113" width="151.217" height="151.217" filterUnits="userSpaceOnUse" color-interpolation-filters="sRGB">
<feFlood flood-opacity="0" result="BackgroundImageFix"/>
<feColorMatrix in="SourceAlpha" type="matrix" values="0 0 0 0 0 0 0 0 0 0 0 0 0 0 0 0 0 0 127 0"/>
<feOffset dy="25"/>
<feGaussianBlur stdDeviation="22.5"/>
<feColorMatrix type="matrix" values="0 0 0 0 0.867118 0 0 0 0 0.908897 0 0 0 0 0.920833 0 0 0 1 0"/>
<feBlend mode="multiply" in2="BackgroundImageFix" result="effect1_dropShadow"/>
<feBlend mode="normal" in="SourceGraphic" in2="effect1_dropShadow" result="shape"/>
</filter>
<linearGradient id="paint0_linear" x1="76" y1="7" x2="76" y2="95" gradientUnits="userSpaceOnUse">
<stop stop-color="#00D1B3"/>
<stop offset="1" stop-color="#00AB8E"/>
</linearGradient>
<linearGradient id="paint1_linear" x1="75.9992" y1="20.2002" x2="75.9992" y2="81.8002" gradientUnits="userSpaceOnUse">
<stop stop-color="#00D1B3"/>
<stop offset="1" stop-color="#00AB8E"/>
</linearGradient>
<linearGradient id="paint2_linear" x1="75.9993" y1="20.3911" x2="75.9993" y2="81.6085" gradientUnits="userSpaceOnUse">
<stop stop-color="#D9FCF8"/>
<stop offset="1" stop-color="white"/>
</linearGradient>
<linearGradient id="paint3_linear" x1="89.9365" y1="40.8647" x2="89.9365" y2="50.4291" gradientUnits="userSpaceOnUse">
<stop stop-color="#00D1B3"/>
<stop offset="1" stop-color="#00AB8E"/>
</linearGradient>
<linearGradient id="paint4_linear" x1="71.6728" y1="58.9219" x2="71.6728" y2="63.2753" gradientUnits="userSpaceOnUse">
<stop stop-color="#00D1B3"/>
<stop offset="1" stop-color="#00AB8E"/>
</linearGradient>
<linearGradient id="paint5_linear" x1="71.6136" y1="40" x2="71.6136" y2="62.6929" gradientUnits="userSpaceOnUse">
<stop stop-color="#00D1B3"/>
<stop offset="1" stop-color="#00AB8E"/>
</linearGradient>
</defs>
</svg>
