<svg width="152" height="152" viewBox="0 0 152 152" fill="none" xmlns="http://www.w3.org/2000/svg">
<rect x="32" y="7" width="88" height="88" rx="44" fill="url(#paint0_linear)"/>
<g opacity="0.5" filter="url(#filter0_f)">
<rect x="45.1992" y="20.2002" width="61.6" height="61.6" rx="30.8" fill="url(#paint1_linear)"/>
</g>
<g filter="url(#filter1_d)">
<rect x="45.3906" y="20.3911" width="61.2174" height="61.2174" rx="30.6087" fill="url(#paint2_linear)"/>
</g>
<path d="M73.1707 44.083C74.8511 44.083 76.2183 45.4501 76.2183 47.1306C76.2183 48.8111 74.8512 50.1782 73.1707 50.1782C71.4902 50.1782 70.123 48.8111 70.123 47.1306C70.123 45.4502 71.4902 44.083 73.1707 44.083Z" fill="url(#paint3_linear)"/>
<path d="M61.8724 61.7365C62.0066 63.3299 63.4446 64.0073 65.8376 63.6233C68.1186 63.2572 69.2627 64.3017 69.556 65.5596C69.556 65.5596 69.6411 66.2332 69.6928 66.9979C69.7308 67.5616 70.1979 68 70.7629 68H84.8019C85.3942 68 85.8744 67.5198 85.8744 66.9275V63.0453C85.8744 61.1335 86.0645 58.2955 87.4355 56.7861C91.2348 52.6034 93.3268 47.119 91.2051 41.5947C88.737 35.1686 81.8469 32.2951 75.3048 33.1461C72.9312 33.4548 70.6187 34.2709 68.6227 35.6005C64.9806 38.0267 62.3807 42.0772 62.0005 46.4695C61.889 47.7577 62.5009 49.3177 62.1929 50.5438C62.1308 50.7919 61.7942 51.9492 59.2717 54.4358C58.6682 55.0307 58.9601 56.0573 59.7863 56.2457C60.9097 56.5018 61.6833 56.6549 61.7995 56.7213C61.7995 56.7213 61.8281 61.211 61.8724 61.7365ZM79.1175 43.2865L79.2904 42.8668C79.1477 42.6129 79.0336 42.3408 78.9529 42.0549L78.5353 41.881C78.3895 41.8203 78.2945 41.6779 78.2945 41.5199V41.0395V40.5591C78.2945 40.4012 78.3895 40.2588 78.5353 40.1981L78.9529 40.0241C79.0336 39.7382 79.1477 39.4661 79.2904 39.2123L79.1174 38.7926C79.0573 38.6466 79.0908 38.4787 79.2025 38.367L79.5422 38.0273L79.8819 37.6876C79.9936 37.5759 80.1614 37.5423 80.3075 37.6026L80.7272 37.7755C80.9811 37.6328 81.2532 37.5187 81.5391 37.438L81.713 37.0203C81.7737 36.8745 81.9162 36.7795 82.0741 36.7795H82.5545H83.0349C83.1929 36.7795 83.3353 36.8745 83.396 37.0203L83.5699 37.438C83.8559 37.5187 84.1279 37.6328 84.3818 37.7755L84.8015 37.6026C84.9476 37.5424 85.1155 37.5759 85.2271 37.6876L85.5669 38.0273L85.9066 38.367C86.0183 38.4787 86.0518 38.6466 85.9916 38.7926L85.8187 39.2123C85.9613 39.4662 86.0754 39.7382 86.1561 40.0241L86.5737 40.1981C86.7196 40.2587 86.8145 40.4012 86.8145 40.5591V41.0395V41.5199C86.8145 41.6778 86.7195 41.8203 86.5737 41.881L86.1561 42.0549C86.0754 42.3409 85.9613 42.6129 85.8186 42.8668L85.9915 43.2865C86.0517 43.4325 86.0182 43.6004 85.9065 43.7121L85.5668 44.0518L85.2271 44.3914C85.1154 44.5031 84.9475 44.5367 84.8015 44.4765L84.3818 44.3035C84.1279 44.4462 83.8558 44.5603 83.5699 44.641L83.3959 45.0586C83.3353 45.2044 83.1928 45.2994 83.0348 45.2994H82.5545H82.0741C81.9161 45.2994 81.7737 45.2044 81.713 45.0586L81.5391 44.6411C81.2531 44.5604 80.9811 44.4463 80.7271 44.3035L80.3074 44.4765C80.1614 44.5366 79.9935 44.5031 79.8818 44.3914L79.5421 44.0518L79.2024 43.7121C79.0908 43.6004 79.0573 43.4325 79.1175 43.2865ZM67.3314 46.4716C67.3314 46.2551 67.4616 46.0598 67.6615 45.9766L68.234 45.7382C68.3447 45.3462 68.5011 44.9732 68.6967 44.6251L68.4596 44.0497C68.3771 43.8494 68.4231 43.6192 68.5762 43.4662L69.0419 43.0005L69.5076 42.5348C69.6607 42.3817 69.8909 42.3356 70.0911 42.4181L70.6666 42.6553C71.0147 42.4596 71.3876 42.3032 71.7797 42.1925L72.018 41.62C72.1012 41.4201 72.2965 41.2899 72.5131 41.2899H73.1717H73.8304C74.0469 41.2899 74.2422 41.4201 74.3254 41.62L74.5638 42.1925C74.9558 42.3032 75.3288 42.4596 75.6769 42.6553L76.2523 42.4181C76.4526 42.3356 76.6827 42.3817 76.8358 42.5348L77.3015 43.0005L77.7673 43.4662C77.9204 43.6193 77.9664 43.8495 77.8839 44.0497L77.6468 44.6251C77.8424 44.9732 77.9988 45.3461 78.1095 45.7382L78.682 45.9766C78.882 46.0598 79.0121 46.2551 79.0121 46.4716V47.1302V47.7889C79.0121 48.0054 78.8819 48.2007 78.682 48.2839L78.1095 48.5223C77.9988 48.9143 77.8424 49.2873 77.6468 49.6354L77.8839 50.2108C77.9664 50.411 77.9204 50.6412 77.7673 50.7943L77.3016 51.26L76.8359 51.7257C76.6828 51.8788 76.4526 51.9248 76.2525 51.8423L75.677 51.6052C75.3289 51.8008 74.956 51.9572 74.5639 52.0679L74.3254 52.6405C74.2422 52.8404 74.0469 52.9706 73.8304 52.9706H73.1718H72.5132C72.2967 52.9706 72.1014 52.8404 72.0182 52.6405L71.7798 52.068C71.3878 51.9573 71.0148 51.8009 70.6667 51.6052L70.0913 51.8424C69.8911 51.9249 69.6609 51.8788 69.5078 51.7257L69.0421 51.2601L68.5764 50.7944C68.4233 50.6413 68.3773 50.4111 68.4598 50.2109L68.6969 49.6355C68.5013 49.2874 68.3449 48.9144 68.2342 48.5223L67.6617 48.284C67.4618 48.2008 67.3316 48.0055 67.3316 47.7889V47.1303L67.3314 46.4716Z" fill="url(#paint4_linear)"/>
<path d="M82.553 38.8164C83.7787 38.8164 84.7759 39.8136 84.7759 41.0393C84.7759 42.265 83.7787 43.2622 82.553 43.2622C81.3272 43.2622 80.3301 42.265 80.3301 41.0393C80.3301 39.8136 81.3272 38.8164 82.553 38.8164Z" fill="url(#paint5_linear)"/>
<defs>
<filter id="filter0_f" x="35.1992" y="10.2002" width="81.6" height="81.6" filterUnits="userSpaceOnUse" color-interpolation-filters="sRGB">
<feFlood flood-opacity="0" result="BackgroundImageFix"/>
<feBlend mode="normal" in="SourceGraphic" in2="BackgroundImageFix" result="shape"/>
<feGaussianBlur stdDeviation="5" result="effect1_foregroundBlur"/>
</filter>
<filter id="filter1_d" x="0.390625" y="0.391113" width="151.217" height="151.217" filterUnits="userSpaceOnUse" color-interpolation-filters="sRGB">
<feFlood flood-opacity="0" result="BackgroundImageFix"/>
<feColorMatrix in="SourceAlpha" type="matrix" values="0 0 0 0 0 0 0 0 0 0 0 0 0 0 0 0 0 0 127 0"/>
<feOffset dy="25"/>
<feGaussianBlur stdDeviation="22.5"/>
<feColorMatrix type="matrix" values="0 0 0 0 0.867118 0 0 0 0 0.908897 0 0 0 0 0.920833 0 0 0 1 0"/>
<feBlend mode="multiply" in2="BackgroundImageFix" result="effect1_dropShadow"/>
<feBlend mode="normal" in="SourceGraphic" in2="effect1_dropShadow" result="shape"/>
</filter>
<linearGradient id="paint0_linear" x1="76" y1="7" x2="76" y2="95" gradientUnits="userSpaceOnUse">
<stop stop-color="#00D1B3"/>
<stop offset="1" stop-color="#00AB8E"/>
</linearGradient>
<linearGradient id="paint1_linear" x1="75.9992" y1="20.2002" x2="75.9992" y2="81.8002" gradientUnits="userSpaceOnUse">
<stop stop-color="#00D1B3"/>
<stop offset="1" stop-color="#00AB8E"/>
</linearGradient>
<linearGradient id="paint2_linear" x1="75.9993" y1="20.3911" x2="75.9993" y2="81.6085" gradientUnits="userSpaceOnUse">
<stop stop-color="#D9FCF8"/>
<stop offset="1" stop-color="white"/>
</linearGradient>
<linearGradient id="paint3_linear" x1="73.1707" y1="44.083" x2="73.1707" y2="50.1782" gradientUnits="userSpaceOnUse">
<stop stop-color="#00D1B3"/>
<stop offset="1" stop-color="#00AB8E"/>
</linearGradient>
<linearGradient id="paint4_linear" x1="75.5014" y1="33" x2="75.5014" y2="68" gradientUnits="userSpaceOnUse">
<stop stop-color="#00D1B3"/>
<stop offset="1" stop-color="#00AB8E"/>
</linearGradient>
<linearGradient id="paint5_linear" x1="82.553" y1="38.8164" x2="82.553" y2="43.2622" gradientUnits="userSpaceOnUse">
<stop stop-color="#00D1B3"/>
<stop offset="1" stop-color="#00AB8E"/>
</linearGradient>
</defs>
</svg>
