<svg width="10" height="10" viewBox="0 0 10 10" fill="none" xmlns="http://www.w3.org/2000/svg">
<path d="M6.65 5.00032L9.74364 1.90668C10.0855 1.56487 10.0855 1.0107 9.74364 0.669423L9.33122 0.257002C8.9893 -0.0849196 8.43513 -0.0849196 8.09385 0.257002L5.00032 3.35053L1.90668 0.256361C1.56487 -0.0854537 1.0107 -0.0854537 0.669423 0.256361L0.256361 0.668782C-0.0854537 1.0107 -0.0854537 1.56487 0.256361 1.90615L3.35053 5.00032L0.257002 8.09385C-0.0849196 8.43577 -0.0849196 8.98994 0.257002 9.33122L0.669423 9.74364C1.01124 10.0855 1.5654 10.0855 1.90668 9.74364L5.00032 6.65L8.09385 9.74364C8.43577 10.0855 8.98994 10.0855 9.33122 9.74364L9.74364 9.33122C10.0855 8.9893 10.0855 8.43513 9.74364 8.09385L6.65 5.00032Z" fill="url(#paint0_linear)"/>
<defs>
<linearGradient id="paint0_linear" x1="5" y1="0" x2="5" y2="10" gradientUnits="userSpaceOnUse">
<stop stop-color="#FA6014"/>
<stop offset="1" stop-color="#CF4003"/>
</linearGradient>
</defs>
</svg>
