<svg width="15" height="15" viewBox="0 0 15 15" fill="none" xmlns="http://www.w3.org/2000/svg">
<path d="M12.7267 7.29702L13.4338 8.00412C13.8243 7.6136 13.8243 6.98043 13.4338 6.58991L12.7267 7.29702ZM8.13665 1.2928C7.74612 0.902273 7.11296 0.902273 6.72243 1.2928C6.33191 1.68332 6.33191 2.31649 6.72243 2.70701L8.13665 1.2928ZM6.59001 12.0194C6.19948 12.41 6.19948 13.0431 6.59001 13.4337C6.98053 13.8242 7.61369 13.8242 8.00422 13.4337L6.59001 12.0194ZM13.4338 6.58991L8.13665 1.2928L6.72243 2.70701L12.0195 8.00412L13.4338 6.58991ZM12.0195 6.58991L6.59001 12.0194L8.00422 13.4337L13.4338 8.00412L12.0195 6.58991Z" fill="url(#paint0_linear)"/>
<defs>
<linearGradient id="paint0_linear" x1="4.71477" y1="4.71467" x2="10.0119" y2="10.0118" gradientUnits="userSpaceOnUse">
<stop stop-color="#00DFC0"/>
<stop offset="1" stop-color="#00C8A6"/>
</linearGradient>
</defs>
</svg>
