<svg width="15" height="15" viewBox="0 0 15 15" fill="none" xmlns="http://www.w3.org/2000/svg">
<path d="M1.99991 7.29702L1.2928 8.00412C0.90228 7.6136 0.90228 6.98043 1.2928 6.58991L1.99991 7.29702ZM6.58992 1.2928C6.98044 0.902273 7.61361 0.902273 8.00413 1.2928C8.39465 1.68332 8.39465 2.31649 8.00413 2.70701L6.58992 1.2928ZM8.13656 12.0194C8.52708 12.41 8.52708 13.0431 8.13656 13.4337C7.74603 13.8242 7.11287 13.8242 6.72234 13.4337L8.13656 12.0194ZM1.2928 6.58991L6.58992 1.2928L8.00413 2.70701L2.70702 8.00412L1.2928 6.58991ZM2.70702 6.58991L8.13656 12.0194L6.72234 13.4337L1.2928 8.00412L2.70702 6.58991Z" fill="url(#paint0_linear)"/>
<defs>
<linearGradient id="paint0_linear" x1="10.0118" y1="4.71467" x2="4.71468" y2="10.0118" gradientUnits="userSpaceOnUse">
<stop stop-color="#00DFC0"/>
<stop offset="1" stop-color="#00C8A6"/>
</linearGradient>
</defs>
</svg>
